<svg xmlns="http://www.w3.org/2000/svg" id="b" width="154.14mm" height="225.83mm" viewBox="0 0 436.94 640.15"><g id="c"><g><path d="M436.83,497.89c-.54-3.42-1.73-6.74-2.43-10.15-4.44-21.62-9.38-43.13-14.58-64.59-.65-2.69-3.05-4.91-2.22-8.04,1.36-1.56,3.89-2.18,4-5.13-2.13-3.17-2.77-6.97-2.63-11.08,.18-5.3-.03-10.61-.12-15.91-.31-18.13-2.83-36.15-2.5-54.34,.14-7.75-.02-15.57-.15-23.34-.12-6.96-.93-13.84-1.08-20.76-.22-10.59,1.98-21.1,.7-31.81-.45-3.78-.74-7.87-.22-11.87,1.59-12.35,.77-24.83,.66-37.2-.09-10.69-.89-21.49-1.85-32.24-1.16-13.02,1.03-26.18-.49-39.46-1.63-14.25-3.36-28.6-2.97-43.05,.19-6.97-1.48-13.96-.1-20.91,.89-4.49-.22-8.89-.11-13.33,.04-1.7-.43-3.5-2.08-4.3-5.98-2.9-12.29-6.7-18.65-6.46-13.6,.49-27.08-.36-40.61-.89-2.39-.09-3.4-1.5-4.28-3.5-6.17-14-14.27-26.39-28.53-33.51-8.61-4.3-17.81-6.66-27.35-5.88-11.28,.92-21.29,5.49-30.2,12.64-7.09,5.69-12.51,12.24-13.95,21.52-.49,3.13-2.37,4.6-5.65,4.1-3.29-.49-6.56-1.02-9.93-.88-12.24,.53-24.47,.25-36.94-.39-.44-.76-.93-1.61-1.41-2.46-5.63-9.87-13.22-18.18-22.84-23.91-11.11-6.62-23.54-9.54-36.64-9.9-15.33-.42-32.69,10.74-37.58,25.29-1.13,3.36-.94,7.16-1.51,12.07-18.49-1.05-36.93-2.24-54.7,.34-.02-.03-.04-.05-.06-.08-3.81,.41-7.61-.2-11.28-1.3-6.5,.71-9.55,5.34-11.44,11.07-1.58,4.79-1.91,9.81-1.93,14.81-.02,8.62,.85,17.23,1.1,25.81,.42,14.39-.81,28.83-1.31,43.25-.3,8.64-2.71,17.15-1.61,25.87,1.18,9.27-.6,18.5-1.18,27.64-.67,10.6-.7,21.22-1.33,31.81-.66,11.08,.06,22.28-1.23,33.26-1.59,13.61-1.06,27.25-.94,40.78,.12,12.97-.67,25.84-1.26,38.73-.59,12.74-2.02,25.46-1.49,38.21,.43,10.17-.86,20.28-1.47,30.32-.51,8.41-.96,16.8-.96,25.23,0,11.25-.33,22.52,.05,33.76,.34,9.95-1.96,19.79-.77,29.75,1.94,16.14,2.7,32.35,2.12,48.6-.7,19.6-1.02,39.21-2.78,58.77-.9,9.99,3.08,17.91,12.1,22.79,2.63,1.42,5.3,4.57,8.57,2.22,3.1-2.24,1.86-5.67,.97-8.75-.18-.63-.08-1.33-.17-1.99-1.42-10.1-.52-20.18-.31-30.31,.24-11.16-.18-22.37,.1-33.56,.49-19.53,.91-39.07,1.33-58.61,.05-2.16,.13-4.36-.16-6.49-1.69-12.47,.95-24.84,.82-37.27-.09-8.18,2.64-16.1,2.33-24.22-.35-9.26,.79-18.48,.93-27.7,.18-11.16,1.1-22.49,1.78-33.74,.75-12.53,1.17-25.08,1.87-37.62,.12-2.15-1.08-4.1-.23-6.38,1.52-4.04,.94-8.21-.24-12.26-.62-2.13-.95-4.12-.06-6.28,1.31-3.18,1.18-6.64,.69-9.87-1.13-7.53,.04-15.17,.89-22.36,1.18-10.01,.52-19.85,.13-29.63-.54-13.53,.58-27.01,.47-40.51-.11-13.84,1.03-27.86,1.34-41.73,.25-11.57,1.87-23.1,1.06-34.81-.61-8.78,1.03-17.8,1.32-26.75,.17-5.25-.56-10.65,1.01-15.87,1.61-5.39,1.65-10.83,.03-16.25-.77-2.57-1.31-5.12-.02-7.53,11.83-1.89,23.57-2.96,35.31-2.99,8.63-.02,17.26-.46,25.88-.25,12.78,.3,25.55-.81,38.35,.51,8.55,.88,17.17,3.49,26.11,.73,.67,1.25,1.81,2.49,1.99,3.86,.9,6.91,2.66,13.83,2.11,20.79-.65,8.36-.6,17.17-7.42,23.67-3.49,3.32-7,6.62-10.56,9.87-6.96,6.35-9.06,16.32-5.18,25.01,5.09,3.31,10,.07,14.94-.63,15.57-2.21,26.81-10.7,33.07-24.97,2.02-4.62,4.62-6.03,9.1-6.83,9.55-1.71,19.3,.13,28.78-2.12,8.46-2.01,17.17-2.03,25.75-3.09,8.88-1.09,17.98,.86,26.72-2.38,2.1-.78,4.82-1.36,7.48-.28,.88,1.11,1.53,2.4,1.56,4.22-.74,.82-1.59,1.76-2.42,2.68,5.31,6.77,5.13,8.18-.96,14.8-3.19,3.47-6.76,6.53-10.72,8.89-4.77,2.84-6.48,6.39-4.76,11.93,4.14,3.17,7.73,7.76,13.29,8.99,8.34,1.84,15.82,6.06,24.02,8.23,1.07,.28,2.09,1.01,2.98,1.73,7.83,6.31,14.67,13.54,19.92,22.16,1.56,2.56,4.39,2.49,6.29,3.69,1.72-.45,2.77-1.21,3.52-2.38,.16-6.67,1.66-13,4.16-18.91,3.27-.64,5.78,.36,8.36,.94,6.18,1.39,10.57,6.16,16.29,8.52,4,1.65,8.67,2.05,11.84,5.9,1.29,1.57,4.06,1.06,5.95-.52,1.82-1.52,2.66-3.2,1.79-5.69-.92-2.65-1.65-5.41-2.06-8.18-1.14-7.74-2.28-15.47-4.41-23.03-3.04-10.78-3.84-21.94-4.84-33.02-.58-6.4,.39-12.52,5.68-17.35,3.24-2.96,4.5-7.36,6.04-11.4,.8-2.09,.39-4.44-1.18-6.11-2.04-2.17-4.36-4.09-6.6-6.06-1.42-1.25-3-1.28-4.51-.36-1.19,1.1,1.09,2.7-.69,3.6-1.27,.71-1.99-1.23-3.55-.54-1.9,5-.11,11.14-3.58,16.02-7.25,1.26-14.27,3.4-21.92,2.17-.3-9.21,2.24-18.22,1.7-26.83,1.86-1.28,3.02-1.33,4.2-1.28,9.29,.39,18.59,.76,27.88,1.17,3.99,.18,8,.21,11.94,.74,6.8,.92,9.24,6.17,5.77,11.97-.67,1.11-1.59,1.97-1.5,3.54,.41,7.45,.45,14.93,1.02,22.36,.93,11.94,2.36,23.83,3.49,35.75,1.54,16.35,1.39,32.83,1.92,49.26,.37,11.27-.6,22.64,1.57,33.87,.95,4.9,.36,9.95,.15,14.95-.5,11.6-1.11,23.22-.95,34.83,.25,17.76,.89,35.53,1.79,53.27,.47,9.32-.67,18.65,.12,27.88,.85,9.94,.93,19.91,1.6,29.85,.34,5.06,1.15,10.31-.43,15.54-2.77-5.13-4.61-10.59-7.37-15.55-2.25-4.05-.88-9.2-3.96-12.58-3.52-3.86-4.9-8.46-5.05-13.2-.11-3.56-.93-6.06-4.19-7.85,1.06-1.46,2.01-2.59,2.78-3.85,2.97-4.85,4.39-10.38,2.27-15.53-3.86-9.35-4.71-19.31-6.76-28.99-2.76-13.03-2.23-26.49-3-39.72-.7-12.01-1.88-24-2.38-36.04-.54-13.07-2.14-26.1-1.93-40.17-.22-.15-1.15-.61-1.86-1.29-3.67-3.49-6.44-2.88-7.93,1.86-.35,1.1-.66,2.27-.68,3.41-.35,14.12,.76,28.18,2.69,42.14,1.19,8.6-.42,17.33,1.66,25.84,1.94,7.96,2.52,16.2,2.75,24.23,.41,14.27,4.12,27.82,6.56,41.67,1.16,6.57,3.21,13.66-2.72,19.3-4.39,4.17-7.62,8.98-9.36,14.78,1.97,4.49,2.08,4.56,6.56,4.04,6.32-.73,8.21,.52,10.31,6.55,2.85,8.16,4.77,16.58,8.2,24.6,3.71,8.68,8.08,17.17,10.34,26.44,2.36,9.68,7.43,18.43,9.13,28.43,1.08,6.33,1.38,12.88,3.59,19,3.84,10.6,4.95,21.58,5.01,33.58-.89,.51-2.2,1.26-2.82,1.61-.52,3.69,2.17,4.62,4.01,7.02-7.5,1.5-13.68,4.87-20.39,6.69-9.77,2.66-19.43,5.48-28.77,9.53-5.95,2.57-11.83,5.27-17.68,8.03-9.4,4.43-19.46,6.6-29.43,9.3-13.11,3.55-25.82,8.67-39.74,8.38-2.13-.04-4.31,.44-6.42,.93-7.48,1.75-15.03,2.76-22.74,2.81-7.14,.05-14.3,.22-21.41,.84-11.73,1.02-23.32,3.33-35.1,4.02-2.27,.13-4.64,.7-6.85,.87-6.09,.46-11.34,3.88-17.33,4.35-4.81,.38-9.54,.63-14.03,2.96-3.84,1.98-6.98-.64-6.29-4.88,.36-2.21,.59-4.28-1.1-6.38-10.47-.6-7.85-11.74-13.34-16.54,1.1-3.92,.12-7.34-.65-10.96-1.01-4.78-3.39-9-4.53-13.67-2.7-11.06-4.66-22.38-8.34-33.1-3.54-10.29-4.61-21.03-7.42-31.43-2.57-9.53-3.83-19.52-6.07-29.25-3.61-15.71-7.15-31.43-6.79-47.74,.13-5.64-.23-11.3-.6-16.94-.94-13.98-2.35-27.93-2.93-41.92-.41-9.92-.21-19.89-1.23-29.76-1.54-14.89-3.04-29.75-2-44.75,.11-1.6,.02-3.65-.87-4.79-4.29-5.52-2.5-12.16-3.65-18.22-.52-2.74-.43-5.61-1.17-8.37-1.6-5.99-1.95-12.08-1.99-18.28-.07-11.63,.38-23.26-.56-34.9-.84-10.42-1.88-20.85-1.46-31.33,.12-2.99-.04-6.33,3.33-7.76,9.01-3.83,18.73-5.83,28.21-4.78,10.48,1.16,19.69-1,28.77-5.39,1.69-.82,3.65-2.11,1.99-4.73-24.21,1.19-48.86-1.34-71.8,9.17,.03,1.95,3.11,.67,2.82,3.06-1.17,1.09-3.38-.17-4.72,2.31-.73,2.1,1.72,4.74,.81,7.54-2.61,8.03-2.1,16.52-2.02,24.6,.16,16.07-.15,32.1-.83,48.14-.19,4.47,.97,8.84,.51,13.42-1.15,11.5-1.96,23.04-2.03,34.64-.12,20.7,.2,41.41-.42,62.12-.31,10.25-1.31,20.52-.79,30.74,.33,6.5,.57,12.91-.49,19.31-1.39,8.41-1.33,16.85-1.23,25.34,.09,7.67,2.22,15.39,1.37,22.78-1.18,10.3,.2,20.51-1.01,30.85-1.35,11.58-1.61,23.46-1.75,35.21-.11,8.99-1.04,17.87-1.75,26.78-1.04,13.19-4.37,26.13-4.32,39.48,.02,5.17,2.54,8.34,7.69,8.19,2.47-.07,4.92-.76,7.39-1.03,3.05-.33,6.19-1.71,8.98,.43,1.42,7.43,2.8,14.67,4.35,22.81,16.57-3.36,32.88-2.97,49.14-1.1,8.85,13.95,8.88,13.79,17.83,10.2,4.78,1.51,9.59,1.06,14.61,.17,4.33-.77,8.26-2.47,12.42-3.55,5.44-1.41,11.09-3.47,16.55-.89,5.73,2.72,11.32,4.3,17.74,3.12,3.2-.59,6.64-.02,9.96,.17,8.44,.5,16.54,3.54,25.09,3.33,3.97-.1,8.38-.97,11.84,.4,9.44,3.74,19.2,4.4,28.97,3.9,8.51-.44,17.14-1.39,25.27-4.4,2.87-1.06,5.67-1.97,8.73-1.68,10.94,1.05,21.52-2.85,32.69-1.65,6.55,.7,13.76-1.28,20.68-2.01,4.83-.51,7.17-3.37,6.38-8-.33-1.94,.24-3.61,.62-5.38,.66-2.99,.82-5.97-.56-8.81-3.53-7.28-1.15-14.95-2.3-22.64,7.32-1.52,13.88-3.47,20.08-6.28,5.96-2.71,11.89-5.01,18.51-5.62,4.13-.38,6.36-3.75,5.71-7.9ZM10.58,598.96c-1.47-8.41,.04-16.69,1-25,.82,8.38,.94,16.73-1,25Zm1.48-29.81v-3.55c.54,1.1,1.1,2.19,0,3.55Zm.05-7.48c-1.45-1.74-1.09-2.8-.1-4.24,1.47,1.51,1.28,2.64,.1,4.24Zm.52-15.73c-.47-.99-.31-1.65,.23-2.43,.86,1.12,.09,1.63-.23,2.43Zm.58-30.55c-1.33-2.17-2.3-3.38-1.04-4.87,1.51-.32,1.7,.73,1.7,1.73,0,.76-.31,1.53-.67,3.14ZM25.4,109.71c-.3,4.58-.34,9.3,.46,13.78,.91,5.08,.65,9.9-.56,14.79-1.1,4.41-1.66,8.89-.7,13.35,1.37,6.37-.59,12.49-.98,18.73-.6,9.58-1.02,19.2-.98,28.79,.04,9.46-1.42,18.88-.4,28.35,1.28,11.89,.76,23.83-.29,35.64-1.85,20.9-.18,41.79-.84,62.67-.41,12.88-1.18,25.77-1.5,38.63-.28,10.8-1.71,21.51-1.65,32.34,.05,8.92-1.76,17.83-2.33,26.78-.74,11.59-.94,23.22-1.62,34.82-.67,11.4,1.19,22.82-.46,34.19-.43,2.93,1.8,5.81-.15,9.44-2.89-3.81-3.53-7.71-3.33-11.72,.76-15.22,.89-30.45,1.01-45.69,.07-9.04,.02-18.15,.22-27.21,.56-25.49,3.22-50.88,2.82-76.43-.13-8.16,1.28-16.52,1.43-24.75,.13-6.91,.55-13.82,.52-20.71-.09-17.09,1.25-34.13,1.39-51.19,.12-14.5,2.56-28.9,1.35-43.45-.71-8.59,1.8-17.09,1.47-25.68-.39-9.96,1.01-19.83,1.06-29.77,.03-6.13,1.62-12.3,1.29-18.38-.61-11.41,2.86-22.67,1.02-34.02-1.19-7.36-.33-14.77-1.51-22.2-.93-5.84,.58-12.2,3.42-18.28,2.38,3.02,1.03,6.07,1.23,8.85,1.16,16.14-.33,32.22-1.37,48.31ZM125.95,37.27c.62-8.25,5.65-11.42,13.06-9.32,5.72,1.62,10.68,4.16,15.67,9.77-10.27-.67-19.29,1.62-28.73-.45Zm50.08,74.82c-6.41,8.28-15.57,9.24-25.17,11.18-.32-8.7,4.97-13.08,10.44-16.69,8.18-5.4,11.9-13.35,13.46-22.25,1.73-9.86,2.44-19.92,.99-29.97-1.67-11.66-6.88-20.84-16.63-28.1-7.1-5.29-14.8-8.35-23.07-9.37-8.22-1.02-14.23,4.21-18.87,10.62-1.06,1.46-1.58,3.44-3.42,4.04-4.09,1.32-9,.76-11.1,7.37-2.35-9.58,4.52-17.57,9.27-20.99,11.89-8.56,25.1-8.21,38.23-4.88,8.93,2.27,16,8.49,22.69,14.79,9.37,8.83,14.01,19.5,13.49,32.5-.18,4.45,1.04,8.94,.96,13.4-.26,13.77-2.44,26.96-11.26,38.36ZM302.1,10.68c11.9,2.85,19.47,10,26.23,19.04,3.18,4.26,6.13,8.61,8.21,13.62,.94,2.27,.94,3.99-.11,6.15,5.03,3.98,5.07,9.25,4.39,14.92-.91,7.55-.07,15.22-2.49,22.7-2.16,6.7-6.14,12.04-10.74,17.02-2.08,2.26-5.19,1.23-8.13,1.63-.07-3.99,1.13-7.01,3.66-8.9,7.46-5.56,9.57-13.19,10.36-22.01,.54-6.06,.94-11.99-.84-17.76-2.49-8.07-3.6-16.87-12-21.98-2.79-1.7-4.25-5.13-7.22-7.28-8.08-5.86-17.49-5.74-26.58-7.22-6.68-1.09-15.11,4.96-18.92,12.24-1.01,1.93-1.79,3.94-3.64,5.04h-9.77c2.3-20.56,30.87-31.21,47.59-27.2Zm7.48,29.05c-10.54-1.3-20.83-.06-31.45-2.13,.1-4.29,1.84-6.02,5.46-6.37,7.45-.73,14.51,1.19,21.57,3,2.04,.53,3.75,2.04,4.42,5.49Zm-35.43,43.4c-2.79,.81-5.95,.44-8.94,.43-10.48-.05-20.91,.65-31.12,3.04-12.4,2.9-24.97,3.26-38.35,3.07,1.61-13.96,.48-27.66-.22-41.26,3.91-1.73,7.43-1.33,10.88-1.35,10.79-.07,21.6,.17,32.38-.2,5.39-.18,9.59,3.13,14.75,3.74,6.81,.81,13.24,.85,19.37-2.43,1.41-.76,2.79-.94,4.31-.87,9.79,.46,19.59,.88,29.38,1.37,2.98,.15,6.12,.11,7.33,3.38,2.46,.56,2.64-2.22,4.41-2.31,5.97,3.96,7.7,15.29,4.28,29.82-4.95,.34-10.16,.58-15.34,1.07-11.02,1.04-22.23-.67-33.13,2.5Zm93.07,4.73c3.72,7.06,3.09,14.6,3.85,21.7,.88,8.16,2.13,16.16,4.41,23.97,2.03,6.95,2.84,14,3.2,21.15,.09,1.77,.42,3.64-.99,6.08-10.01-5.77-19.56-12.35-31.67-15-1.33,.86-3.19,2.61-5.36,2.4-3.49,4.41-4.11,9.52-6.49,15.02-5.33-6.91-10.66-12.25-16.04-17.55-2.42-2.38-4.88-3.83-8.26-3.9-3.05-.06-5.99-1.01-8.52-2.57-4.81-2.97-10.72-3.43-15.25-6.97-1.32-1.04-2.47-2.15-3.8-4.66,11.58-6.83,17.93-18.09,23.91-29.72,1.36-3.76-1.55-5.5-5.32-7.4,5.8-1.8,10.76-1.62,16.04-1.07-.32,2.93-2.04,4.6-3.77,5.99-3.6,2.9-4.44,6.46-3.22,10.7,1.36,4.76,1.92,10.66,7.2,12.35,4.94,1.59,8.32-3.23,11.73-6.07,7.2-5.99,13.38-12.96,17.71-21.88,6.99,.5,13.68-1.63,20.64-2.57ZM88.66,213.4c.13,.21,.28,.41,.36,.64,.02,.06-.22,.3-.26,.28-.22-.11-.42-.27-.6-.39,.16-.18,.33-.35,.5-.53Zm5.92,116.76c.26,17.23-1.73,34.11-2.67,51.15-.72,12.96,.5,25.92,.68,38.88,.16,11.55,.31,23.1,.01,34.66-.21,8.15-.32,16.43,.89,24.6,2.03,13.79,.67,27.58,.2,41.62-5.41,2.05-10.21,3.07-15.57,2.9-1.03-3.79-1.26-7.69-.65-11.3,2.48-14.63,3.63-29.3,3.81-44.14,.13-10.78,1.37-21.59,2.83-32.29,1.07-7.85-.1-15.62,.41-23.41,.35-5.3,.76-10.6,.93-15.91,.45-14.24-2.11-28.43-.65-42.69,.41-3.97,.42-7.99,1.02-11.92,1.34-8.81-.17-17.56-.21-26.33-.04-9.07,1.42-18.18,1.1-27.23-.41-11.71,.77-23.34,.6-35.04-.15-10.26-1.61-20.52-.48-30.8,.19-1.69-.52-3.81,2.73-4.8,.97,4.07,2.39,8.67,2.06,12.11-.75,7.91,1.01,15.41,1.54,23.08,.39,5.74,1.2,11.47,.03,17.16-.86,4.18,1.98,7.53,1.94,11.64-.17,16.03-.79,32.11-.55,48.06Zm7.24,59.58c.11,.08,.22,.16,.34,.24-.15,.18-.3,.37-.47,.52-.02,.02-.21-.15-.32-.23l.45-.53Zm1.2,155.83c-.66-50.95-1.3-100.82-1.95-150.68,12.16,49.92,23.54,99.91,38.37,149.83-12.36,1.46-24.06-.15-36.43,.85Zm143.97,10.38c2.3-1.22,4.18-.54,6.71-.54-2.39,1.51-4.17,1.94-6.71,.54Zm139.15-4.47c-4.25,.72-7.95,1.49-11.68,1.95-20.94,2.58-41.91,4.96-62.84,7.66-12.78,1.65-25.19,.3-37.37-3.65-1.8-.58-3.49-.97-5.36-.51-2.48,.62-4.9,.42-7.41-.79,11.16-2.51,22.19-4.48,33.39-5.1,9.77-.54,18.76-3.94,27.98-6.62,7.95-2.32,16.02-4.25,24.05-6.3,8.33-2.12,15.59-6.59,23.18-10.34,5.43-2.69,10.72-5.77,17.63-7.41,.55,11.12-1.09,20.91-1.58,31.11Z" fill="#dac9b3"></path><path d="M245.93,339.97c-2.42-21.08-2.72-42.3-4.06-63.44-.99-15.64,5.98-32.8,22.24-40.11,18.88-8.49,37.61-8.72,56.12,1.8,12.27,6.97,16.96,18.65,19.12,31.18,3.06,17.82,4.55,35.9,6.82,53.86,1.49,11.85,3.57,23.64,4.65,35.52,1.02,11.16,2.23,22.24,.3,33.65-1.45,8.57-4.04,16.23-8.22,23.65-1.39,2.47-3.4,4.05-5.45,5.66-6.19,4.87-12.21,10.04-19.82,12.69-.78,.27-1.61,.68-2.39,.64-8.17-.41-16.51,.58-23.81-4.91-6.06-4.56-13.57-6.94-19.2-12.33-2.18-2.08-4.46-3.89-5.72-6.76-5.12-11.63-10.25-23.2-14.59-35.22-4.27-11.84-4.86-23.8-5.99-35.88Zm59.34,79.25c5.89-.22,8.1-3.23,9.97-7.06,4.84-9.89,5.45-20.56,4.77-31.07-1-15.22-2.56-30.42-4.62-45.58-1.3-9.55-2.71-19.01-4.63-28.46-1.39-6.84-4.78-13.14-5.21-20.15-.8-12.96-4.62-25.34-7.05-37.98-.88-4.55-3.03-7.81-7.77-8.51-4.46-.65-9.89,2.45-11.67,6.77-3.21,7.77-2.74,16.02-1.77,24.06,1.82,15.11,4.92,30.1,6.22,45.24,1.29,15.02,3.32,29.91,5.62,44.78,1.91,12.29,4.36,24.49,6.35,36.77,1.32,8.17,6.67,14.2,9.8,21.19Zm-37.19-171.61c-9.14,3.59-16.26,14.61-16.18,24.5,.07,7.9,.63,15.72,1.48,23.61,1.67,15.47,1.29,31.15,2.5,46.69,1.47,19,6.54,37.16,14.51,54.52,4.7,10.23,13.21,15.81,23.08,20.52,.34-2.47-.55-3.96-1.67-5.1-3.47-3.54-4.85-8.05-5.45-12.65-2.87-21.74-6.9-43.31-9.58-65.09-1.6-12.99-2.07-26.14-4.74-39-2.16-10.43-3.99-20.9-3.96-31.6,.02-5.42,0-10.84,0-16.41Zm57.13,170.12c.88,.52,1.69,.37,2.39-.15,7.79-5.86,12.27-13.48,13.97-23.24,2.62-14.97,1.2-29.81-.48-44.62-1.21-10.71-2.78-21.4-4.68-32.05-2.03-11.4-2.09-23.13-3.39-34.67-1.14-10.1-3.17-20.08-8.34-29.01-3.36-5.8-8.75-9.17-15.19-11.17-1.08,3.18-.28,5.73,.26,8.33,1.06,5.04,2.24,10.06,2.96,15.15,1.9,13.47,3.09,27.07,8.21,39.88,.61,1.52,.99,3.22,1.04,4.85,.4,11.99,3.63,23.62,4.37,35.58,.41,6.6,1.55,13.16,2.32,19.74,1.82,15.74,3.09,31.44-2.95,46.7-.58,1.48-1.53,3.04-.51,4.69Z" fill="#dac9b3"></path><path d="M182.53,430.66c-3.53-14.68-7.43-29.4-9.11-44.44-1.67-14.98-4.67-29.83-4.94-44.97-.27-15.2-.15-30.44-3.03-45.33-7.8-1.52-15.36,.22-21.8-3.33,0-7.68,1.3-9.45,7.72-11.19,7.81-2.12,10.31-7.03,8.33-16.37-1.68-7.93,4.55-18.13,12.34-20.18,.32-.08,.68-.3,.96-.23,6.4,1.63,12.27-1.84,18.51-1.85,6.18,0,11.61,4.11,11.46,10.19-.21,8.69,1.88,17.07,2.33,25.63,.56,10.69,.36,21.45,2.12,32.02,2.5,15.01,5.18,30.07,6.66,45.13,1.23,12.51,4.93,24.51,5.4,37.23,.36,9.96,3.27,20.24,6.68,29.96,1.04,2.97,3.19,4.83,6.81,4.79,3.98-.05,11.86,5.79,13.05,9.17,.66,1.86-.31,3.22-1.28,4.58-1.53,2.15-3.84,2.08-5.88,1.43-3.02-.97-6.06-1.59-9.19-2.13-7.7-1.32-14.9,.51-22.01,2.89-6.18,2.07-12.54,1.04-18.8,1.67-2.47,.25-4.98,.17-7.44,.5-3.2,.44-5.89-.5-6.94-3.48-1.17-3.3-.72-6.65,2.62-8.82,1.37-.89,2.9-1.55,5.43-2.87Zm-8.1-174.34c-1.12,1.78-1.24,3.31-1.16,4.78,.55,10.54,.48,21.17,1.94,31.59,2.58,18.42,3.23,36.95,3.06,55.41-.13,15.3,3.36,29.96,5.39,44.83,1.85,13.53,7.66,26.36,9.8,40.47,8.05-1.36,15.79-2.66,23.32-3.92,.78-1.43,.95-2.66,.21-3.64-4.11-5.37-4.53-11.95-5.59-18.16-2.48-14.58-4.29-29.28-6.63-43.88-.61-3.81,.07-7.68-.84-11.37-4.15-16.9-5.03-34.25-7.4-51.39-1.64-11.87-1.43-23.81-2.9-35.64-.48-3.89-.18-8.02-3.34-11.63-5.22,.35-10.63,.63-15.86,2.56Z" fill="#dac9b3"></path><path d="M427.13,636.85c-1.56,2.44-3.12,3.74-5.74,3.17-2.01-2.36,.11-6.1-2.82-8.34-5.24-.87-10.71,1.45-16.09-.25-3.74,2.62-7.74,3.84-12.22,3.95-24.94,.59-49.91-1.18-74.81-.11-20.49,.88-40.77-2.23-61.22-1.39-10.41,.43-20.66-3.42-31.12-3.09-17.65,.55-35.2-1.45-52.82-1.61-13.11-.12-26.25-.23-39.32-.46-11.11-.19-22.49,.06-33.68-2.07-7.27-1.38-14.88-1.86-22.35-1.15-6.72,.64-13.26-.24-19.84-1.23-4.76-.71-9.49-1.47-14.39-1.06-4.25,.36-8.65,.67-12.76-1.16-1.23-2.81-3.44-5.46-1.27-8.46,2.07-2.86,5.29-3.05,8.56-2.7,27.47,2.95,55.12,3.54,82.62,5.84,17.15,1.44,34.28-1.22,51.36,.97,5.51,.71,10.99,1.71,16.52,2.11,7.09,.52,14.16-.85,21.3-.44,5.14,.3,10.15,.6,15.26,1.69,5.4,1.15,11.2,.23,16.78,.73,9.2,.83,18.54-.12,27.56,3.25,7.15,2.67,14.26-1.72,21.57-1.46,14.71,.52,29.27,3.38,44.07,2.64,7.77-.39,15.58-.07,23.34-.56,4.4-.28,8.58,.83,12.91,.99,14.93,.55,29.17-3.58,43.66-5.95,1.88-.31,3.62,.34,6.02-.16,.36-5.88,.69-11.92,1.12-17.95,1.15-16.29,.46-32.51-1-48.77-.52-5.85,1.23-12.22-.7-17.75-2.45-7.03-.3-13.4,.17-19.85,1.81-1.92,3.65-1.99,6.43-.82-.49,6.7,5.1,12.52,3.11,20.13-1.34,5.12,.6,10.52,.04,15.86-1.03,9.75-.43,19.56-.29,29.35,.22,15.41-1.14,30.8-.39,46.2,.16,3.28-1.08,6.6,.45,9.9Z" fill="#dac9b3"></path><path d="M145.36,189.24c7.89-8.62,14.23-2.98,20.1,3.49,3.73-1.27,6.95-1.41,9.55,1.17,1.91-1.14,.78-2.99,1.89-4.64,3.2-.94,4.44-5.17,7.97-6.38,4.89-1.68,7.69,1.67,10.42,4.87,2.72,3.2,1.29,6.15-.42,9.12-2.68,.74-5.2,1.44-8.17,2.27,1.03,4.92-2.72,8.12-4.32,12.34-2.51,1.4-4.88,1.41-7.19-1.19,1.74-4.41,4.66-8.87,.89-14.25-2.24,3.07-5.96,3.47-8.5,5.61-.2,1.94,2.2,2.22,2.11,3.94-.08,2.76-1.31,5.05-2.96,7.13-9.01,.96-12.83-3.22-11.04-11.83,.34-1.65,1.43-3.48-.76-5.81-3.85,5.6-.6,13.26-5.34,17.84-1.84,.74-3.19,.39-4.65-.84,.25-7.36-4.24-14.69,.41-22.85Z" fill="#dac9b3"></path><path d="M402.61,607.39c-3.88,1.39-7.51,2.65-10.64,5.42-3.5,3.1-7.36,.37-10.71-1.08-2.53-1.09-4.74-3.07-6.84-4.94-5.97-5.28-6.12-12.59-.55-18.37,8.08-8.38,14.64-9.12,23.62-2.67,5.2,3.73,7.89,14.54,5.12,21.62Zm-23.32-10.44c1.82,3.81,4.58,6.23,8.8,6.01,2.66-.14,3.77-2.45,4.04-4.89,.39-3.44-1.79-5.03-4.7-6.01-4.58-1.55-6.01,1.97-8.15,4.88Z" fill="#dac9b3"></path><path d="M37.05,576.73c.06-8.87,5.02-15.09,13.11-15.74,5.14-.41,9.01,3.08,12.56,6.03,5.95,4.96,6.79,10.23,3.88,17.3-.13,.31-.2,.78-.43,.88-5.71,2.43-7.95,8.43-12.42,12.05-3.57,2.89-6.97,.87-9.67-1.9-4.32-4.43-7.08-12.09-7.03-18.63Zm12.03-6.54c-5.45,5.13-4.61,13.28,1.88,17.8,2.06-3.11,6.96-4.3,6.4-9.16-.53-4.62-4.14-6.81-8.28-8.64Z" fill="#dac9b3"></path><path d="M225.73,188.64c2.17-.75,3.41-1.17,4.63-1.6,1.3-1.21-1.34-2.98,1.12-4.23,3.39,1.03,4.4,7.98,10.31,5.01,.11-2.72-2.31-5.72,.66-8.56,2.08-1.99,4.16-1.58,6.64-1.49,2.5,5.16,5.98,10.24,2.91,16.18-3.31,6.4-9.97,3.59-15.49,4.75-1.22,2.93-2.36,6.01-3.77,8.97-1.34,2.84-2.95,5.55-4.4,8.23-3.37,.97-6.12,.76-8.66-3.18,5.83-6.63,8.22-14.79,6.05-24.08Z" fill="#dac9b3"></path><path d="M71.19,87.15c-6.59,.18-9.74-1.99-11.88-8.2-1.91-5.56-.43-10.77,4.48-13.93,3.1-2,5.07-5.66,9.58-5.71,7.46-.08,12.14,4.14,11.01,11.42-.4,2.59-.23,5.08-.5,7.6-.57,5.22-5.58,8.63-12.68,8.82Zm-.34-7.77c3.41-1.05,5.53-2.68,3.38-6.82-1.86,.2-3.73-.51-5.36,1.03-.5,2.21-.17,4.18,1.98,5.79Z" fill="#dac9b3"></path><path d="M325.08,491.77q-3.56,.32-11.39-6.62c-2.12,.5-2.86,2.49-4.12,3.95-1.27,1.48-2.91,2.28-4.88,1.74-2.05-.57-3.16-2.39-3-4.16,.39-4.36-.94-7.74-4.11-10.7-1.38-1.29-1.39-3.3-1.19-5.41,2.91-2.76,5.97-2.31,10.08-2.1,10.49,.54,12.21,9.97,17.88,15.23,1.93,1.79,3,4.9,.74,8.07Z" fill="#dac9b3"></path><path d="M260.97,177.11c1.79-.96,3.43-1.15,4.62-2.56,1.5-1.79,3.6-2.19,5.8-1.07,2.16,1.09,3.25,3.07,3.08,5.29-.25,3.43,.26,6.96-1.04,10.56-3.34,1.59-5.12,4.41-5.83,8.31-.78,4.26-7.14,9.43-11.35,9.9-3.32,.37-4.33-1.68-4.76-4.39q9.28-8.13,5.86-19.22c.38-2.84,4.87-3.4,3.62-6.83Z" fill="#dac9b3"></path><path d="M346.26,477.09c-2.87,2.76-.85,8.46-6.35,10.94-6.07-.21-2.67-5.73-4.07-9.49-7.84-.9-11.29-6.31-11.72-14.06-.22-3.98,2.84-5.57,5.75-7.5,3.09,2.81,4.28,6.36,4.94,9.81,3.36,4.11,10.93,2.49,11.45,10.3Z" fill="#dac9b3"></path><path d="M217.88,182.1c2.57,.71,3.74,2.1,4.84,3.53q.36,6.4-10.15,9.76c0,2.01,.06,4.14-.01,6.28-.1,2.83,.07,6.27-3.84,6.32-3.78,.05-4.84-2.82-4.75-6.25,.04-1.31-.13-2.69-.53-3.93q-2.96-9.11,5.07-14.32c3.24,1.41,6.54,1.19,9.37-1.39Z" fill="#dac9b3"></path><path d="M351.04,477.29c-.11-1.81,.46-3.8-.58-5.4-2.43-3.73-1.08-7.34,.04-11.01,.64-2.1,1.16-4.51,3.89-4.53,2.88-.01,5.4,1.58,6.25,4.23,1.71,5.33,2.92,10.83,4.22,16.29,.54,2.27-.57,3.88-2.68,4.75-1.08,.44-2.22,.71-3.29,1.16-6.63,2.79-8.31,1.62-7.84-5.5Z" fill="#dac9b3"></path><path d="M259.61,496.41c-2.04,2.2-3.95,3.08-6.3,3.61-5.85-3.3-2.46-13.34-11.06-14.77-.18-4.58,.08-8.8,3.71-11.8,3.45-2.85,6.51-.77,9.65,1.56,2.13,6.86,1.14,14.46,4,21.4Z" fill="#dac9b3"></path><path d="M292,172.74c.79,1.48,1.48,2.77,2.12,3.98-.8,2.52-1.32,4.88-3.03,6.9-2.02,2.38-1.48,5.33-.74,8.06,.63,2.29,.79,4.59,.52,6.89-.26,2.24-1.57,3.61-3.96,3.65-2.1,.04-4.35-.29-4.77-2.65-1.15-6.45-3.42-12.79-2.7-19.8,5.22-.44,6.5-7.17,12.55-7.02Z" fill="#dac9b3"></path><path d="M280.96,497.19c-2.16-.86-3.52-2.24-4.55-4.17,.1-2.65,1.81-5.38,0-8.44-1.09-.75-2.44-1.67-3.78-2.59-1.61-4.61-1.95-8.84,2.53-12.06,7-.02,8.86,1.57,9.64,8.34,.4,3.46,.69,6.94,1.09,10.41,.46,3.94-.9,6.81-4.94,8.52Z" fill="#dac9b3"></path><path d="M224.92,474.69c2.26-.71,4.21-.47,5.97-.09,5.97,5.96,7.18,12.97,5.01,20.61-.72,2.53-1.34,2.54-5.62,2.81-6.17-7.86-8.4-17.29-5.35-23.33Z" fill="#dac9b3"></path><path d="M210.31,478.12c1.38,4.82-.1,9.6,2.87,13.33-3.26,6.1-5.13,6.69-10.47,3.47-1.77-3.56-2.17-7.56-3.83-11.22-1.45-3.19,1.05-6.2,3.45-8.08,3.47-2.71,5.67,.59,7.98,2.51Z" fill="#dac9b3"></path><path d="M306.75,195.95c-4.09,1.45-6.27-.52-8.03-3.65-.19-2.54,1.12-5.16,.09-7.79-.96-2.46-1.91-4.92-2.86-7.37,1.56-2.57,3.02-4.94,5.19-6.64,3.9,2.1,7.86,20.49,5.6,25.45Z" fill="#dac9b3"></path><path d="M309.97,192.02c4.42-7.09-2.02-14.48,.07-22.32,5.71,3.74,10.12,15.65,7.9,21.3-1.41,3.6-4.17,3.74-7.97,1.02Z" fill="#dac9b3"></path><path d="M181.35,491.98c4.48-5.85,6.48-6.28,12.58-2.91,1.02,5.3-.34,7.71-5.03,8.89-3.89,.98-5.88-.55-7.54-5.98Z" fill="#dac9b3"></path></g></g></svg>