<svg xmlns="http://www.w3.org/2000/svg" id="b" width="214.57mm" height="304.21mm" viewBox="0 0 608.22 862.33"><g id="c"><path d="M224.88,810.08c-10.9,.15-20.46-4.05-30.28-6.9-13.36-3.88-26.47-8.71-39.94-12.11-7.3-1.84-14.96-2.43-22.41-4.06-10.05-2.2-19.87-5.16-29.81-7.73-11.37-2.93-23.22-4.25-34.15-8.52-13.3-5.2-27.2-8.5-40.42-13.91-7.36-3.01-15.49-3.8-22.75-7.22-6.14-2.88-6.96-7.85-1.37-12.02-1.65-9.35,.99-18.95,.07-28.85-1.39-14.98-1.57-30.09,.03-45.18,.78-7.34,.64-14.79,.8-22.19,.43-20.22,.78-40.44,1.21-60.66,.31-14.06,1.39-28.11,.74-42.17-.3-6.64,.15-13.33,.92-19.73,1.6-13.31,1.82-26.73,2.46-39.99,.78-16.12,3.89-32.17,2.07-48.55-1.06-9.54,.89-19.39,1.18-29.11,.31-10.26,.7-20.54,.22-30.78-.32-6.71,.7-13.22,1.04-19.82,.88-17.34,1.12-34.69,2.64-52.02,1.29-14.74,2.37-29.62,1.2-44.38-1.11-13.93,.71-27.75,.17-41.58-.45-11.67,.11-23.46-2.74-35.01-.74-2.97-.02-6.3-.03-9.46-.04-11.11-.6-22.24-.03-33.31,.72-13.86-.21-27.69,.15-41.49,.32-12.4,1.9-24.77,1.99-37.26,.06-9.34-1.72-18.58-1.1-27.88,.4-5.99,.35-11.91-.75-17.81-.74-3.95,1.52-6.95,2.75-10.16,2.19-.71,4.21,.16,4.53,1.55,1.93,8.29,9.32,8.94,15.37,10.74,15.51,4.61,29.94,11.88,44.99,17.59,9.81,3.72,19.85,6.67,29.83,9.78,9.7,3.03,18.88,7.35,28.51,10.5,15.62,5.1,30.81,11.45,46.16,17.24,14.46,5.45,29.26,9.79,43.72,15.17,10.48,3.9,21.18,7.58,32.35,9.09,5.58,.76,10.66-2.14,15.86-3.67,5.28-1.55,10.38-3.19,16.05-3.06,3.59,.08,6.49,.79,9.13,3.49,8.36-4.77,16.66-9.58,25.03-14.26,6.5-3.63,12.98-7.35,19.68-10.6,18.82-9.13,38.43-16.41,57.96-23.79,15.19-5.74,30.98-9.87,46.25-15.42,18.52-6.74,37.71-11.57,55.53-20.24,2.3,1.95,5.5,.52,7.46,3.17,1.29-.96,2.43-1.82,3.47-2.59,3.71-.02,5.26,2.08,5.86,5.17,1.59,8.13,2.02,16.4,2.83,24.62,.13,1.36,.26,2.64,1.8,3.98,4.51-.49,9.46-1.29,14.35,.03,1.59,.43,3.26,.67,4.79,1.25,5.74,2.2,9.2,5.69,9.12,12.59-.07,6.58,1.28,13.17,1.81,19.77,.13,1.67,.62,2.84,1.86,3.74,11.62-4.46,23.36-7.7,36.09-7.61,2.48,7.07,2.29,14.55,3.07,21.82,1.47,13.63,.84,27.41,2.91,41.05,1.14,7.51,.32,15.23,.47,22.84,.42,21.38-.21,42.78-.8,64.17-.46,16.92,.74,33.88,.39,50.81-.19,9.29,.84,18.73-.46,27.82-1.89,13.23-.64,26.43-.98,39.59-.21,8.28,.28,16.82,.07,25.11-.26,10.02,2.22,19.72,1.61,29.75-.37,5.98,.39,12.17,.42,18.28,.05,9.71-1.08,19.58,.35,29.07,1.52,10.08,.44,20.11,1.54,30.17,1.57,14.38-1.06,28.92-1.41,43.41-.45,18.54-.49,37.06,.36,55.63,.48,10.46,.18,21.12,.06,31.68-.09,7.8,.65,15.62,1.08,23.43,.3,5.42-.19,10.86-.07,16.22,.21,9.08-.18,18.13-.56,27.16-.69,16.15,.04,32.31-.48,48.47-.21,6.53,.24,13.74-.87,19.76-2.33,12.65-1.03,25.76-5.24,38.1-.86,2.51-2.04,4.42-4.22,5.91-7.31,5.01-14.99,7.63-24.06,9.22-14.49,2.54-29.28,2.15-43.71,6.21-10.36,2.92-21.52,3.87-32.33,5.68-9.68,1.61-19,4.8-28.75,6.04-7.38,.94-14.81,1.78-22.03,3.47-18.57,4.36-37.59,5.92-56.29,9.45-8.1,1.53-16.47,1.93-24.68,3.05-6.57,.89-13.93,.54-20.63,1.4-10.03,1.28-20.1-.08-30.03,1.7-5.31,.95-9.43,4.52-14.47,6.28-5.65,1.98-11.13,1.84-16.1,.67-8.4-1.98-17.04-3.68-24.95-7.49-.15-.07-.35-.1-.45-.21-7.21-9.06-18.51-7.93-28.05-11.13-2.12-.71-4.04-1.28-4.96-3.01Zm185.13-52.79c-.99-.02-2.09-.34-2.91,.86,1.33,.28,2.04-.43,2.81-.96l.02-.14,.08,.24Zm2.59,11.54c-1.35,.5-2.69,1.01-4.33,1.62,2.1,.49,3.47,.1,4.23-1.7,.29,.02,.58,.04,.31,.02,.31-.09,.05-.01-.21,.06Zm3.6-13.44c8.58-1.91,17.33-3.25,25.69-5.87,13.75-4.3,27.45-8.65,41.64-11.4,14.52-2.8,28.79-6.75,43.35-9.45,8.24-1.53,16.32-3.99,24.92-6.15-.85-4.21,2-6.23,4.79-8.63-.5-6.4,2.9-12.5,2.15-19.06-1-8.76-.15-17.51-.08-26.26,.06-8.29,.94-16.58,.93-24.87-.02-12.86-.82-25.73-.72-38.59,.14-18.52,.57-37.03-.07-55.54-.24-6.99-.27-14-.06-20.98,.44-15.06,1.2-30.12,1.63-45.18,.24-8.26-.15-16.55,.19-24.8,.31-7.39,1.46-14.75,1.8-22.14,.27-5.8-.95-11.75-.07-17.41,1.37-8.81,.66-17.55,.52-26.3-.23-13.75-.18-27.47,.85-41.19,.28-3.79,.97-7.69,.43-11.38-1.41-9.73-1.29-19.54-1.12-29.24,.23-13.23,.92-26.42,.65-39.69-.38-19.31-1.06-38.58-2.37-57.85-.66-9.73,.18-19.59-.89-29.26-.92-8.4-2.43-16.85-2.61-25.21-.34-16.6-2.86-33.01-3.01-49.66-.15-16.29-3.82-32.48-5.26-48.74-1.03-11.74-7.89-14.7-17.99-13.1-.9,2.21-.66,4.58-.2,6.8,2.33,11.2,3.78,22.53,3.79,33.94,0,11.99,.86,23.89,1.62,35.83,.78,12.28,4.03,24.14,4.4,36.55,.54,18.32,1.27,36.66,1.87,54.99,.61,19.04,2.17,38.02,3.57,57,.73,9.9,.46,19.83,1.36,29.75,.51,5.62-.33,11.52,.17,17.29,.99,11.55,.06,23.1,0,34.65-.05,11.75-1.74,23.45-.94,35.21,.49,7.29,1.5,14.51,.86,21.88-.35,4.09-1.52,8.16-.74,12.35,1.95,10.56-.05,21.15,.08,31.74,.11,8.73-1.24,17.58-1.28,26.23-.04,9.61,.07,19.28,0,28.94-.13,17.93-.22,35.87,.07,53.8,.16,9.99-1.58,19.86-1.45,29.78,.27,20.25,1.08,40.52,1.78,60.74,.46,13.43-.49,26.7-.33,40.04,.02,2.08-1.09,3.38-2.06,4.97,1.15,3.11,1.49,5.89-1.78,8.3-7.98,5.88-17.54,8.39-26.25,12.7-11.96,5.91-24.95,8.93-37.72,12.41-10.39,2.84-20.2,7.27-30.52,10.23-10.83,3.11-20.94,8.16-31.53,11.92-.37-.1-.73-.2-.24-.07-.54,.05-.19,.02,.16-.01Zm-111.41,52.75c-5.96,3.19-13.32,4.3-16.96,11.13,6.59-.3,13.42,1.45,18.45-4.8,1.67-2.08,4.79-3.23,7.74-2.42,2.82,.78,5.61,.7,8.42,.45,8.75-.78,17.53-.7,26.29-2,14.09-2.11,28.35-3.05,42.47-4.97,8.38-1.14,16.61-3.42,24.97-4.8,9-1.49,18.14-2.2,27.11-3.85,14.14-2.6,28.4-4.37,42.43-7.95,15.38-3.92,31.32-5.57,46.94-8.65,2.94-.58,5.6,1.72,8.21,.1,5.09-3.15,10.91-2.52,16.42-3.4,10.16-1.64,20.37-2.97,30.64-4.45,.98-2.7,2.36-5.1,2.68-7.63,1.84-14.17,3.09-28.43,5.2-42.55,1.45-9.69-.6-19.33,.25-28.84,1.1-12.29,.08-24.56,1.09-36.83,1.65-20.06-.27-40.16-.83-60.22-.79-28.36-1.4-56.7-.39-85.05,.54-15.05,2.01-30.02,1.07-45.17-.53-8.52-.56-17.29-1.29-25.69-1.21-13.8-1.19-27.64-1.01-41.29,.21-16.1-2.22-32.01-1.43-48.12,.74-15.01-1.19-30.18,.04-45.12,.89-10.75,.33-21.44,1.02-32.14,1.15-17.93,.09-35.88-.54-53.81-.45-12.63,2.11-25.05,1.33-37.73-.95-15.33-.22-30.76-.8-46.12-.52-13.74-1.76-27.46-2.86-41.18-.37-4.58-1.26-9.12-1.94-13.8-9.38-1.06-17.4,3.09-26.87,4.91,3.62,3.6-.02,6.48,.41,9.81,2.07,16.01,2.69,32.16,3.93,48.24,1.27,16.43,3.52,32.79,4.79,49.23,.69,8.91,1.23,17.92,1.18,26.8-.05,9.16,.31,18.3,.98,27.36,1.05,14.2,.33,28.41,.61,42.58,.24,12.43-.04,25.01-.28,37.51-.34,18.04-.04,36.1-.16,54.14-.05,8.62-.05,17.28-.52,25.85-.98,17.93-.21,35.92-2.1,53.79-.63,6.01,.57,11.93,.27,17.87-.71,13.86-1.9,27.69-2.58,41.54-.52,10.75-1.52,21.62-.57,32.28,1.42,15.86-.15,31.65,.43,47.49,.5,13.7,.96,27.46-.41,41.3-.86,8.75,0,17.93,.2,26.91,.14,6.55-1.27,13.11,.24,19.71,.53,2.32,.64,4.73,.47,7.27-.5,7.57-2.51,14.94-2.58,22.57-.02,2.58,.97,5.28-.17,7.68-2.6,1.94-5.29,2.91-8.42,2.52,.49,3.28,1.01,6.15,1.32,9.05,.34,3.13,.24,6.33,.77,9.42,.96,5.58,.43,7-5.15,7.93-13.54,2.24-27.13,4.1-40.64,6.53-13.2,2.38-26.37,5.08-39.51,7.63-15.22,2.96-30.51,5.79-45.68,9.13-6.61,1.46-13.37,2.2-20.01,3.5-14.98,2.92-29.21,8.58-44.07,12.06-10.24,2.4-20.39,5.34-30.42,8.87-9.13,3.21-18.69,7.46-29.06,5.4h-1.12ZM28.23,21.17c-.91,2.67-.85,4.82-.73,6.97,.41,7.46,1.34,14.94,1.14,22.38-.34,12.96-1.28,25.91-2.13,38.85-1.1,16.9-.87,33.81-.13,50.71,.47,10.79-.63,21.61,.75,32.37,1.63,12.72,2,25.49,1.89,38.3-.09,10.56-.69,21.13-.8,31.66-.08,7.21,.26,14.59,.8,21.88,1.23,16.46-2.52,32.69-2.33,49.19,.22,19.37-1.8,38.75-2.44,58.14-.42,12.61-.55,25.27-.4,37.86,.16,14.33,.18,28.72-.48,42.96-1.14,24.52-3.64,48.98-4.54,73.55-.91,24.84-1.13,49.68-1.76,74.52-.26,10.13-.69,20.26-.66,30.39,.09,22.35-2.69,44.64-.73,67.04,.56,6.39,.64,12.92,.53,19.42-.13,7.38-1.19,14.95,1.24,22.34,13.74,4.68,27.18,9.91,41.03,14.15,9.65,2.95,18.92,7.24,28.93,9.15,9.59,1.83,19.07,4.05,28.46,6.78,4.93,1.43,9.29,4.58,14.48,4.89,5.53,.34,10.76,2.2,16.14,2.91,19.31,2.57,37.06,10.98,56.15,14.35,9.31,1.65,17.66,6.71,26.91,8.92,10.09,2.41,19.86,6.26,30.45,6.22,2.08,0,3.54,1.34,3.72,3.37,.19,2.11,1.17,3.56,2.92,4.3,5.61,2.35,11.34,4.35,17.8,4.66,.46-4.94-4.03-4.69-5.91-6.8-.93-4.21,.64-7.93,4.55-9.7,6.86-3.11,13.42-6.73,19.93-10.63,1.08-2.93,1.79-5.94,1.69-9.17-.33-10.76,.33-21.55,.62-32.25,.4-14.65,.39-29.39,2.19-44.12,1.73-14.21,1.05-28.88-.14-43.22-1.1-13.22-1.72-26.46-2.28-39.67-1.26-30.19-.21-60.4,.73-90.6,.24-7.59-1.23-15.24-.53-22.89,1.25-13.78-2.15-27.33-1.45-41.22,.72-14.24-1-28.6-.95-43,.06-16.63-.19-33.31-.23-49.96-.01-3.92-1.18-7.89-1.07-11.68,.29-10.36,.89-20.72,1.28-31.09,.31-8.39-1.2-16.61-.39-25.08,.92-9.6-.43-19.41-.83-29.13-.09-2.15-.1-4.33-.48-6.44-1.53-8.51-1.68-17.17-1.25-25.68,.41-8.09-.37-16.14,.3-24.26,.58-7-1.25-14.16-1.57-21.27-.15-3.4,.84-6.92-.52-10.2-1.72-4.17-1.59-8.39-1.31-12.75,.18-2.79-.08-5.66-.49-8.44-1.47-9.86-1.53-19.83-1.12-29.68,.59-14.16,3.75-28.29-1.03-42.43-4.9-1.66-12.37,.21-20.59,5.48-2.2-2.67-4.72-1.28-6.73,.47-2.16,1.88-1.1,4.11,.18,6.28,.62,1.05,.62,2.55,.6,3.85-.06,5.94-.3,11.88-.32,17.81-.02,6.75-1.13,13.59-.83,20.18,.73,16.47,3.77,32.84,2,49.43-.4,3.78-1.18,7.27-5.14,8.92-4.52-1.3-5.75-2.1-4.75-5.49,2.3-7.75-.89-15.13-.59-22.67,.37-9.19-3.04-18.03-2.06-27.29,.66-6.22,.62-12.53,.68-18.81,.1-11.23,.03-22.46,.03-33.8C179.49,78.06,104.6,47.86,28.23,21.17Zm507.58,645.88c-2.67-4.28-1.4-9.57-1.89-14.55-.98-9.95,.58-19.97,.3-29.86-.34-11.91-1.75-23.69-.05-35.68,1.12-7.89,.48-15.98,.98-24.01,.97-15.62-.57-31.37,.27-47.06,.18-3.31-.6-6.54-.55-9.89,.09-5.84,1.88-11.66,1.24-17.31-1.52-13.42,.36-26.74,.21-40.1-.11-9.92,.44-19.85,.08-29.75-.4-11.05-.39-22.11-.83-33.17-.41-10.33-.75-20.92,2.17-31.14,.26-.92,.21-2.04-.04-2.97-2.89-10.76,2.13-21.83-1.32-32.56-.09-.29,0-.67,.09-.98,1.91-7.17,1.29-14.38,.04-21.52-1-5.71-.84-11.54-1.1-17.22-.3-6.36-2-12.61-1.12-19.22,.74-5.55,.05-11.49-1.39-17.14-.57-2.24-.4-4.57-.26-6.92,.25-4.29,.73-8.85-.4-12.87-2.31-8.2-1.77-16.56-1.33-24.64,.71-13.17-1.58-26.1-1.44-39.21,.11-11.23-2.18-22.43-3.73-33.63-1.52-10.98-1.24-22.11-1.38-33.22-.16-13.16-2.41-26.37-4.56-39.42-1.41-8.56-.97-17.23-2.54-25.73-.96-5.17-.63-10.43,.18-16.11-5.37,1.91-8.83,5.75-13.77,6.95-7.7,1.87-14.46,6.25-22.34,8.12-4.73,1.12-9.41,4.38-14.24,5.55-12.74,3.08-24.47,9.02-37.47,11.58-14.83,2.92-28.09,11.29-42.75,15.13-13.97,3.66-26.62,10.46-39.38,16.65-13.62,6.61-26.01,15.75-39.13,23.91-.41,6.54-.8,13.15-1.23,19.74-.38,5.75-1.48,11.55-1.05,17.23,1.08,14.24,.22,28.53,2.08,42.79,1.94,14.9,1.29,30.04,2.19,45.04,.74,12.3-.28,24.56,.37,36.85,.22,4.16,2.16,8.35,1.08,12.27-1.42,5.14,.13,9.88,.36,14.79,.26,5.68,.11,11.41,.78,17.04,.73,6.2-2.62,12.47-.81,18.17,2.89,9.16,1.23,18.27,.48,27.07-1.34,15.75,.72,31.38,.03,47.11-.43,9.99,.17,20.3-.06,30.44-.08,3.39,1.29,6.22,1.36,9.5,.21,9.01-1.26,17.89-.97,26.95,.47,14.26,1.62,28.49,1.93,42.77,.34,15.41,.77,30.75,.15,46.18-.72,17.82-.04,35.69-.14,53.54-.12,20.85,2.16,41.59,2.44,62.43,.16,11.99,3.44,23.72,1.07,36.07-1.74,9.09-.38,18.75-.87,28.13-.63,12.14,.91,24.21,.57,36.35-.1,3.73-1.34,7.3-1.51,11.04,1.07,.11,1.65,.37,2.02,.19,10.59-5.16,22.2-8.11,32.59-13.31,14.35-7.17,29.5-12.06,44.02-18.58,7.54-3.38,15.8-3.73,23.26-7.1,6.03-2.72,12.39-4.69,18.47-7.3,11.75-5.05,24.5-6.83,36.32-11.84,15.2-6.44,31.92-8.73,46.72-16.57,6.54-3.46,14.35-5.97,13.72-15.02-.56-8,2.67-15.33,2.11-23.98Zm-117.94,100.39c43.59-5.47,86.26-16.19,129.91-24.18-1.53-2.57,1.05-4.47,1.13-6.99-8.05,.11-15.25,3.04-22.79,3.76-7.07,.67-13.34,4.13-20.59,4.76-8.99,.79-17.95,3.32-26.6,6.13-7.49,2.43-15.19,3.98-22.67,6.51-12.5,4.22-25.77,5.76-38.39,10.01Zm-98.3,27.24c-.52-.03-.85-.15-1.06-.03-.41,.23-.71,.67-.02,.86,.23,.06,.61-.46,1.07-.83Z" fill="#dac9b3"></path><path d="M321.72,862.33c-.04-.12-.09-.24-.13-.36,.12-.04,.27-.15,.36-.12,.08,.04,.1,.22,.14,.35-.12,.04-.24,.09-.37,.13Z" fill="#dac9b3"></path><path d="M97.61,137.68c1.71,3.14,.79,6.87,3.14,9.84,14.99,.84,29.44,4.84,43.39,10.1,9.86,3.72,19.77,7.47,29.23,12.41,7.81,4.08,16.88,5.5,24.6,9.47,2.78-1.57,2.49-4.29,3.77-6.49,1.37-.77,2.94-1.65,4.45-2.5,1.93,.39,2.99,1.56,3.66,3.06-1.09,7-4.06,13.26-6.71,19.6-2.65,6.34-10.29,10.03-17.42,8.7-6.57-1.22-13.14-1.65-19.73-.22-.64,.14-1.38,.33-1.97,.15-10.63-3.22-22.07-2.4-32.53-6.76-8.52-3.55-16.26-8.76-25.3-11.27-2.56-.71-4.25-4.05-7.61-4.12-1.54,1.92,.3,4.36-1.13,6.19-1.42,1.7-3.41,1.81-5.34,1.94-5.81-4.1-5.84-4.64-.8-11.39,2.38-1.24,4.41-.18,6.63,1.24-.25-1.05-.43-1.79-.68-2.83,1.6-1.16,3.3-2.4,5.66-4.11,27.64,17.1,57.97,23.77,90.66,19.87-29.31-13.03-58.72-25.63-90.35-31.86-1.99,3.91-1.79,7.21-1.67,10.27-1.3,2.09-3.48,2.28-5.03,3.38-3.26-1.28-3.7-3.49-3.89-6.73-.39-6.41,1-12.87-.48-19.42-2.74-.2-5.33-.4-8.17-.61,.37,4.66-3.8,7.64-3.46,12.88,.76,11.84-.46,23.86,2.27,35.53,1.11,4.76,.18,9.25-.32,13.68-1.17,10.38-3.13,20.65-2.59,31.19,.13,2.53-1.14,5.13-1.75,7.64-1.5,1.3-3.18,1.88-5.16,2.12-4.51-3.53-1.56-8.47-1.75-12.49-.53-11.37,2-22.68,1.77-34.13-.16-7.83-2.04-15.4-2.64-23.16-.57-7.27,.02-14.3,1.18-21.47,.91-5.63,1.52-10.92,7.44-13.4-.3-7.28,.66-7.99,7.32-5.48,1.67,.63,3.2,.56,4.77-.34,1.96-1.13,4.05-1.38,6.54-.49Z" fill="#dac9b3"></path><path d="M264.89,275.21c.83-.88,1.49-1.58,2.3-2.44-2.72-1.81-3.92-4.45-4.95-7.28-1.29-3.57-2.54-7.14-4.06-10.64-5.14-11.9,2.31-17.79,12.17-17.69,4.77,.05,9.67,1.08,13.58,5.15,2.61,2.71,4.25,5.4,4.45,8.94,.34,5.97-1.62,11.39-4.66,16.43-.74,1.22-2.22,1.29-3.55,1.53-2.48,.43-4.63,1.5-6.49,3.76,5.25,5.42,4.85,12.21,5.29,18.92,.9,13.5,1.29,27.03,2.98,40.51,.72,5.74-1.16,11.85,.21,17.68,3.58,15.33,.32,30.73,.79,46.09,.28,9.21,1.1,18.45,.95,27.61-.19,11.86-.21,23.76-.53,35.63-.34,12.22,.52,24.51-.31,36.78-.45,6.63-.41,13.29-.73,19.93-.51,10.52,.39,21.13-1.76,31.56-.46,2.21-.51,2.2-2.88,4.61-1.75-.56-3.61-1.17-5.23-1.69-1.08-1.33-1.61-2.55-1.29-3.94,2.53-10.85,1.22-21.87,1.45-32.82,.25-11.72,.99-23.43,1.02-35.14,.04-16.7,.51-33.39-.6-50.1-.74-11.17-1.14-22.42-1.27-33.58-.11-9.36,.61-18.8,.62-28.24,.01-9.59-2.23-18.95-2.14-28.51,.03-3.63-.53-7.27-.68-10.9-.42-10.39-.97-20.76-.86-31.2,.07-6.76-.41-14.16-3.81-20.95Zm1.24-27.86c.72,5.64,.75,10.64,4.67,14.41,4.57-1.14,7.3-3.86,6.41-8.19-1.06-5.14-5.86-5.31-11.08-6.22Z" fill="#dac9b3"></path><path d="M271.7,636.11c.91-1.26,2.26-3.12,3.67-5.05,4.7,.57,6.88,2.91,7.61,7.67,1.64,10.67,.79,21.25-.53,31.8-.82,6.54,.93,12.86,.58,19.38-.81,15.27-.99,30.57-1.41,45.85-.36,13.05-.96,26.09-.88,39.14,.03,4.86,.08,9.5-1.44,14.19-1.22,3.77-3.28,6.02-7.22,6.33-2.34-.71-3.52-2.55-4.86-4.25,3.4-51.29,5.54-102.61,4.47-155.06Z" fill="#dac9b3"></path><path d="M97.12,270.35c-3.55-2.5-2.07-5.23-1.98-7.59,3.8-4.99,9.09-3.8,12.78-1.68,6.18,3.56,12.88,5.1,19.43,7.27,10.53,3.49,21.21,6.52,31.69,10.11,8.59,2.94,17.13,6.02,25.56,9.45,6.23,2.53,12.83,4.21,19.36,5.92,4.9,1.28,9.35,3.44,13.57,6.05,2.5,1.55,4.35,3.84,1.99,7.33-5.37,1.07-10.36-1.41-15.08-3.29-7.3-2.91-14.8-4.53-22.41-6.05-6.35-1.27-11.9-4.81-18.05-6.86-10.07-3.37-20.04-7.01-30.24-10.1-9.9-3-20.45-4.37-29.33-10.42-2.19-1.49-4.86-2.37-7.31-.15Z" fill="#dac9b3"></path><path d="M238.53,307.38c-3.29,1.05-5.9,1.27-9.16,.92-1-1.34-2.25-3.01-3.76-5.02,6.55-2.75,5.18-9.4,5.82-14.95,1.48-12.76,2.22-25.46,1.15-38.46-.79-9.56-1.07-19.46-.19-29.26,.46-5.14-1.41-10.38-.74-15.73,.3-2.36,.41-4.6,2.02-6.42,6.33-1.42,9.66,1.86,8.13,9.3-2.21,10.81-1.69,21.76-2.65,32.62-.41,4.64,1.29,9.42,1.53,14.17,.33,6.29,.85,12.7,.04,18.9-.87,6.62-.39,13.15-.44,19.72-.04,4.8-.39,9.53-1.76,14.21Z" fill="#dac9b3"></path><path d="M269.13,605.18c-.09-1.34,.11-2.76-.32-3.96-3.68-10.01,.8-17.2,7.99-23.46,5.46-4.76,14.51-3.8,19.09,1.98,6.24,7.87,6.16,21.92-.17,29.66-2.21,2.7-12.43,4.29-16.46,2.53-3.63-1.59-7.24-3.24-10.13-6.76Zm18.57-3.29c3.22-7,1.91-12.67-3.52-15.97-2.72,3.15-8.5,4.18-6.23,10.71,1.75,5.05,5.69,4.68,9.74,5.26Z" fill="#dac9b3"></path><path d="M112.97,62.61c2.37,.43,4.58,1.61,6.67,.12,2.74,1.4,5.17,2.66,6.35,5.55,.87,2.15,2.97,2.42,5.01,2.58,2.97,.24,5.96,.41,8.92,.78,4.43,.56,6,3.05,4.58,7.74-5.62,2.56-11.27,.68-15.31-2.72-4.92-4.13-10.03-3.72-15.39-3.99-2.73-.9-2.82-3.68-3.93-5.76,.39-1.8,1.24-3.15,3.11-4.31Z" fill="#dac9b3"></path><path d="M42.68,421.15c2.13,.78,2.27,2.42,2.13,4.42-.28,4.1,.25,8.21-.48,12.35-.46,2.6,.48,5.17,2.84,7.32-2.03,1.65-3.87,3.15-5.87,4.77-1.61-1.15-3.02-2.15-4.5-3.19-.45-5.36,.26-10.69-1.3-16.03-1.43-4.88,1.18-7.74,7.18-9.64Z" fill="#dac9b3"></path><path d="M44.42,460.33c.61,6.39-1.04,12.05-3.34,17.49-1.69,1.12-3.32,1.86-5.21,1.05-2.77-4.8-2.9-14.98-.25-18.07,3.28-3.83,4.22-3.9,8.8-.46Z" fill="#dac9b3"></path><path d="M81.85,56.31c4.6-5.92,8.46-4.69,12.59-1.18,.95,3.24,.42,6.19-2.98,8.8-6.49-3.79-13.13-7.22-20.41-9.05,.46-4.41,2.76-6.1,6.07-6.07,3.62,.02,5.33,2.24,4.73,7.5Z" fill="#dac9b3"></path><path d="M42.25,503.43c-1.26,2.39-2.32,4.4-3.36,6.37-2.97,1.12-5.58-.13-9.14-.8,3.72-5.77,.03-12.39,3.53-18.09,1.81-.93,3.63-2.2,6.3-.92,1,4.42,.06,9.43,2.68,13.44Z" fill="#dac9b3"></path><path d="M162.52,761.04c-1.35,2.43-3.06,3.92-4.92,5.08-7.62-1.52-11.28-4.08-14.12-9.89,1.08-1.49,2.21-3.05,3.47-4.78,5.57,2.63,12.78,2.11,15.57,9.58Z" fill="#dac9b3"></path><path d="M119.57,753.01c-.6-4.14,2.8-5.07,4.16-7.47,3.06,.62,6.04,.92,8.8,1.85,3.14,1.06,4.66,3.53,4.14,6.96-.49,3.26-3.01,3.48-5.57,3.74-4.84,.49-7.72-3.19-11.53-5.08Z" fill="#dac9b3"></path><path d="M44.47,389.06c5.04,5.65,.5,12.5,2.65,18.76-1.67,1.11-3.55,2.36-5.52,3.67-1.44-.13-2.88-.32-3.71-1.79,1.24-5.06,1.18-10.06-.26-15.2,1.63-2.63,3.3-5.21,6.84-5.44Z" fill="#dac9b3"></path><path d="M163.73,766.31c1.94-5.67,4.78-8.1,8.21-7.24,6.07,1.52,8.81,5.73,7.82,12.04-5.56,2.98-6.01,1.68-16.03-4.8Z" fill="#dac9b3"></path><path d="M35.74,591.65c-1.42,3.79-4.93,4.02-7.83,6.13-3.86-5.41-4.74-10.92-2.99-16.79,2.71-1.96,5.23-1.65,8.04-.75,.92,3.77,1.84,7.57,2.78,11.41Z" fill="#dac9b3"></path><path d="M45.96,154.91c-6.75-3.14-8.39-9.89-4.93-16.94,1.73-3.52,4.56-4.12,9.18-1.48-3.02,5.49-.51,12.42-4.24,18.42Z" fill="#dac9b3"></path><path d="M236.47,183.22c-6.35,2.26-10.56-3.38-16.04-4.33-.64-1.74-1.2-3.27-1.82-4.98,1.26-1.35,2.48-2.66,3.62-3.88,9.03,1.91,14.91,7.23,14.25,13.18Z" fill="#dac9b3"></path><path d="M93.26,744.09c3.17-3.83,7.57-3.56,11.79-3.19,6.47,.56,7.96,4.06,4.48,9.88-6.64,1.43-14-1.58-16.27-6.69Z" fill="#dac9b3"></path><path d="M185.08,764.24c3.26-.66,6.33-.75,9.58-.04,1.27,3.14,3.68,5.81,3.59,9.36-4.58,4.25-8.83,3.35-14.49-2.89q-.21-3.08,1.32-6.42Z" fill="#dac9b3"></path><path d="M38.64,343.59c1.96-1.99,3.83-3.28,6.58-4.35,3.12,5.09,2.48,10.51,1.53,15.87-.49,2.79-2.52,3.7-5.68,2.73-1.82-4.37-2.64-9.1-2.44-14.24Z" fill="#dac9b3"></path><path d="M222.16,782.14c-4.38,2.36-8.06,1.36-11.83-.26-.42-1.22-.66-2.36-1.17-3.36-1.52-2.99-2.25-5.67,1.85-7.21,3.34-1.26,7.58,.2,8.87,3.34,.93,2.26,1.45,4.69,2.29,7.49Z" fill="#dac9b3"></path><path d="M200.77,94.16c2.65,.82,3.64,2.54,5.54,3.05,2.51,.67,3.32,2.72,2.49,5.12-.84,2.43-2.72,4.21-5.31,3.4-4.54-1.42-8.95-3.31-11.88-7.17,1.49-6.06,6.93-1.76,9.16-4.4Z" fill="#dac9b3"></path><path d="M45.24,122.15c-2.94-.03-3.78-3.18-6.42-3.56,.59-4,1.12-7.68,1.64-11.23,6.95-2.88,7.89-1.69,8.6,10.69-.99,1.59-2.05,3.22-3.82,4.1Z" fill="#dac9b3"></path><path d="M38.62,535.72c-2.6,.6-4.66,1.07-7.08,1.62-1.33-4.4-4.5-8.35-1.46-13.15,1.86-1.1,3.68-2.18,5.98-3.55,3.64,4.64,2.87,9.79,2.56,15.07Z" fill="#dac9b3"></path><path d="M40.02,387.1c-1.25-5.01-2.84-9.85,.03-14.73,1.41-2.39,2.32-2.53,6.43-1.97,3.81,3.69-3.28,8.72,1.72,12.04-1.89,2.83-3.73,5.08-8.18,4.66Z" fill="#dac9b3"></path><path d="M50.7,733.57c3.85-2.15,7.44-3.46,11.58-1.98,3.49,1.25,3.96,3.87,2.82,6.76-1.07,2.71-2.98,5.29-6.39,3.46-3.35-1.8-9.2-1.44-8.01-8.24Z" fill="#dac9b3"></path><path d="M35.56,551.36c.69,3.48,1.28,6.5,1.95,9.85-3.12,1.63-5.29,6.08-10.15,3.03,.37-3.28-.26-6.1-1.56-8.51,1.92-4.78,5.38-5.2,9.77-4.37Z" fill="#dac9b3"></path><path d="M94.06,216.94c-2.32-.51-4.18-.61-5.72-1.87-.76-2.32-1.52-4.65-2.29-7.03,2.52-4.34,5.94-5.53,10.5-3.19,1.75,2.29,1.48,4.97,1.54,7.86-1.25,1.32-2.6,2.73-4.03,4.23Z" fill="#dac9b3"></path><path d="M48.22,93.78c-1.8,2.42-3.44,3.59-5.89,2.56-2.37-.99-2.88-2.92-2.75-5.24,.09-1.64-.04-3.31,.14-4.94,.53-4.79,2.18-5.82,7.6-4.72,2.44,3.94-.54,8.34,.89,12.33Z" fill="#dac9b3"></path><path d="M35.19,706.97c-2.99,2.66,.06,8.59-5.5,9.07-2.99,.26-5.73-1.94-6.96-4.79-1.5-3.48,1.24-5.85,3.56-7.43,3.38-2.31,5.73,.76,8.9,3.15Z" fill="#dac9b3"></path><path d="M35.56,263.86q5.49-7.63,10.47-6.08c.36,.7,.81,1.57,1.25,2.44,.45,.88,.89,1.77,1.39,2.77-1.05,2.87-1.61,6.15-6.11,6.61-1.44-2.71-6.24-1.58-7-5.75Z" fill="#dac9b3"></path><path d="M33.79,683.87c-.23,3.69,0,7.35-4.77,8.91-3.14-.06-5.63-1.9-7.35-4.95,1.55-8.33,5.35-9.66,12.13-3.97Z" fill="#dac9b3"></path><path d="M33.72,626.67c0,3.65,.83,7.59-3.14,10.27-4.48-.29-6.57-2.91-7.16-7.24-.33-2.44,.31-4.32,2.48-5.41,3.22-1.62,5.72-.38,7.81,2.38Z" fill="#dac9b3"></path><path d="M28.28,650.81c3.15,2.04,6.28,3.68,6.96,7.95-3.08,1.62-3.9,5.63-7.27,7.24-6.09-7.83-6.08-9.24,.31-15.19Z" fill="#dac9b3"></path><path d="M47.05,280c2.59,2.37,2.1,5.37,2.74,8.39-2.05,1.44-2.38,4.96-5.8,5.15-2.27-.51-2.89-2.71-4.41-3.86q.89-9.51,7.48-9.67Z" fill="#dac9b3"></path><path d="M101.57,244.71c3.48,2.17,8.37,2.8,8.31,8.55-1.18,1.69-2.61,3.24-5.06,3.99-2.49-1.41-6.55-.55-7.13-5.29-.43-3.51,1.01-5.6,3.88-7.26Z" fill="#dac9b3"></path><path d="M241,783.71c-1.93,2.44-5.06,2.82-7.45,4.25-2.01-.29-3.61-1.1-5.2-2.44-.45-1.72-.94-3.61-1.4-5.35,5.89-6.38,10.38-2.48,14.06,3.54Z" fill="#dac9b3"></path><path d="M223.33,224.55c-2.82,1.44-5.41,2.25-6.72-.38-1.89-3.79-3.32-7.95,.17-11.99,2.67-.11,5.12,.49,7.16,2.89,.05,3.08,.84,6.35-.61,9.48Z" fill="#dac9b3"></path><path d="M171.41,91.5c4.18-3.92,5.62-4.21,12.23-2.86,2.68,4.82,2.08,6.89-2.95,9.79-3.91-1.01-6.89-3.32-9.28-6.94Z" fill="#dac9b3"></path><path d="M47.6,233.66c-.96,1.58-1.72,2.83-2.53,4.17-1.9,.37-3.79,.75-5.49,1.08-3.2-1.89-2.26-5.6-4.55-7.22,1.88-3.88,4.89-4.76,8.1-4.56,3.86,.24,3.09,4.09,4.47,6.53Z" fill="#dac9b3"></path><path d="M43.77,181.49c-2.87-3.29-4.82-7.14-5.9-11.58,2.21-3.33,4.77-4.49,8.32-1.85,1.01,3.12,.29,6.66,2.49,9.46-1.41,1.58-2.35,3.38-4.91,3.96Z" fill="#dac9b3"></path><path d="M46.59,311.38c1.11,1.85,2.13,3.55,3.28,5.45-1.43,2.96-2.2,6.4-5.84,8.22-1.81-2.15-3.58-4.25-5.21-6.2,1.17-7.3,1.82-7.94,7.77-7.48Z" fill="#dac9b3"></path><path d="M127.3,250.43c2.11,2.51,1.01,4.94,.03,7.28-4.04,2.95-6.93-.2-10.44-1.57,.31-1.85,1.3-3.78-.55-5.28,3.85-3.21,7.41-1.96,10.97-.43Z" fill="#dac9b3"></path><path d="M86.06,742.01c-1.77,2.5-3.36,5.07-6.82,3.8-2.78-1.02-6.63-1.28-5.76-5.99,5.57-5.54,10.41-4.86,12.58,2.19Z" fill="#dac9b3"></path><path d="M33.62,729.28c4.86-4.4,7.18-3.88,11.34,2.31-1.48,3.97-4.65,5.56-8.63,6.12-1.91-2.43-3.08-5.03-2.7-8.43Z" fill="#dac9b3"></path><path d="M33.19,603.06c1.74,3.84,1.79,7.51-.7,10.73-1.17,1.51-3.48,.67-4.5-.39-1.83-1.89-4.17-4.1-2.92-7.13,1.48-3.59,4.84-3.24,8.13-3.21Z" fill="#dac9b3"></path><path d="M222.27,112.23c-3.72,.22-4.39-5.12-8.41-3.24,1.24-6.31,6.99-8.39,11.98-5.02,.63,3.44,.1,6.4-3.57,8.26Z" fill="#dac9b3"></path><path d="M224.81,280.25c-3.63,1.92-6.73,1.96-9.76,.6-1.71-3.06-1.13-5.54,1.34-7.99,1.65-.13,3.61-.28,5.54-.43,3.27,1.71,1.68,5.01,2.88,7.82Z" fill="#dac9b3"></path><path d="M96.6,232.74c-.77,2.12-2,3.6-3.68,4.83-2.91,.35-4.53-2.33-7.02-2.96-1.18-4.55,1.71-6.67,4.77-8.96,2.99,1.75,3.94,4.87,5.93,7.09Z" fill="#dac9b3"></path><path d="M222.26,262.89c-2.54,.79-5.6,2.83-7.26-.85-1.68-3.74-.38-7.06,3.4-9.06q3.18,1.71,5.66,5.37c.1,1.7-.74,3.09-1.8,4.54Z" fill="#dac9b3"></path><path d="M171.09,266.35c-2.39,2.88-4.96,5.07-8.19,2.97-3.28-2.14-4.88-5.36-1.33-9.4,4.5-.08,7.37,2.45,9.52,6.44Z" fill="#dac9b3"></path><path d="M64.11,42.61v3.71c-3.6,4.21-7.13,2.97-10.66,.63-.74-1.66-.76-3.24-.14-4.82q3.74-2.22,10.81,.48Z" fill="#dac9b3"></path><path d="M44.82,203.86c.28,2.4-1.18,4.23-.2,5.79-2.19,3.1-4.72,2.68-6.82,1.15-3.02-2.2-2.6-5.31-1.16-8.56,3-1.6,5.56-.49,8.18,1.63Z" fill="#dac9b3"></path><path d="M187.88,270.49c2.95-2.24,5.51-2.98,8.57-2.35,1.5,.9,2.51,2.37,3.55,3.86-.27,3.8-3.1,4.25-5.93,4.67-4.72,.69-3.7-4.06-6.2-6.18Z" fill="#dac9b3"></path><path d="M226.24,243.67c-3.22,2.87-6.07,1.25-9.13,.59-.28-3.82-.59-7.2,3.41-9.12,4.17,1.34,5.48,4.41,5.72,8.53Z" fill="#dac9b3"></path><path d="M211.23,202.94c-.53-1.45-1.09-2.97-1.69-4.6,3.32-3.22,7.08-.72,10.45-1.79,1.86,3.84,1.27,6.48-2.31,8.52-2.23,.23-4.13-1.26-6.44-2.14Z" fill="#dac9b3"></path><path d="M50.71,55.52c.24,1.31,.32,2.13,.56,2.89,.24,.75,.66,1.45,1.09,2.35-1.34,1-2.62,1.96-4.03,3.02-3.86-.71-6.64-2.38-6.79-6.97,1.45-.92,2.82-1.79,4.05-2.57,2-.46,3.17,1.11,5.12,1.28Z" fill="#dac9b3"></path><path d="M138.32,253.95c3.7-3.61,7.39-.89,11.11-1.12,.29,4.78-2.24,6.73-6.19,6.99-3.27,.21-4.81-1.82-4.92-5.87Z" fill="#dac9b3"></path><path d="M154.41,83.81c2.37-3.67,5.69-4.34,8.52-1.88,3.63,3.17-.14,5.41-1.98,7.92-3.7-.31-6.42-1.48-6.53-6.05Z" fill="#dac9b3"></path><path d="M238.11,115.47c3.44-2.89,6.22-.63,9.07,.86-.64,6.84-2.25,7.89-7.97,5.36-.93-1.86-1.25-3.9-1.1-6.22Z" fill="#dac9b3"></path><path d="M244.19,785.06c1.25-2.34,1.86-5.33,5.51-5.32,1.92,0,3.13,1.07,3.38,2.94,.27,2.03-.74,3.65-2.5,4.44-2.48,1.11-4.82,.98-6.4-2.07Z" fill="#dac9b3"></path><path d="M453.31,293.59c.36,5.65,2.26,11.31,2.68,17.1,.41,5.7,.18,11.53-.75,16.8,2,3.36,5.17,3.52,7.77,3.86,9.41,1.23,17.71,5.56,26.38,8.86,3.28,1.25,5.27,3.85,6.56,7.04-1.57,4.81-5.6,6.79-9.42,4.13-9.09-6.34-19.46-8.99-30.05-11.08-3.8-.75-7.09-2.55-10.25-4.32-2.33,.97-2.46,3.41-4.14,4.33,2.19,6.68,5.75,9.61,11.79,8.16,5.6-1.35,9.72,.37,13.39,3.93,6.7,6.51,13.22,13.22,16.77,22.16-2.09,2.69-4.7,2.47-6.89,1.47-4.5-2.07-8.84-4.54-11.32-9.2-1.68-3.16-5.6-4.26-6.63-7.31-5.54-2.36-11.37-1.23-17.38-4.81,1.07,7.41-1.2,13.84-1.24,20.63,3.52,1.37,8.41,1.59,7.62,6.51-.82,5.11-5.95,4.49-9.66,5.29-1.89,.41-3.99,.1-5.97-.14-4.55-.56-6.91-4.23-5.61-8.6,3.46-11.67,3.72-23.49,1.14-35.31-1.15-5.24-4.36-9.99-7.14-14.25-4.03-6.18-5.1-11.81-3.19-18.53,.95-3.35,1.53-6.82,2.69-10.09,1.79-5.06,6.09-7.52,11.38-7.38,3.65,.1,7.33-.01,10.89-1.07,3.54-1.05,6.91-.9,10.59,1.81Zm-25.88,21.9c4.93-4.68,10.91-4.43,16.03-6.39-.14-2.35-.27-4.31-1.8-6.04-3.87,.19-7.83-.17-11.89,.97-.77,3.52-3.17,6.56-2.34,11.45Z" fill="#dac9b3"></path><path d="M400.54,169.83c-3.46,.52-5.99,2.25-7.59,5.25-4.19-.77-8.08-1.46-11.96-2.2-.64-.12-1.53-.24-1.81-.68-3.78-5.86-9.79-10.05-11.82-17.33-1.52-5.44-3.25-10.23-1.15-16.16,5.23-14.79,12.43-21.39,26.94-24.14,9.6-1.82,17.91-.58,25.55,5.52,1.89,1.51,3.38,3.14,4.14,5.73-3.2,4.6-.54,9.78-.85,14.8-.47,7.66-.73,8.62-7.98,11.08-4.28,1.46-7.92,3.78-8.54,8.63-.48,3.72-3.15,6.05-4.91,9.5Zm-12.45-41.51c.25-.38,1.16-.34,.77-1.16-.98,.03-.82,.63-.67,1.22l-.27-.24,.18,.18Zm11.99,15.99c4.54,.33,9.02,3.74,11.88-1.83,1.27-2.47,1.63-5.08-1.12-7.41-2.97,3.84-7.89,4.76-10.76,9.24Z" fill="#dac9b3"></path><path d="M384.13,358.3c-5.08-1.43-4.25-8.25-9.35-8.6-.78-1.88,.2-2.85,.87-4.01,1.4-2.42,2.08-5.04,1.74-7.89-.92-7.91,1.28-15.25,5.12-21.94,1.51-2.62,2.82-5.51,5.24-7.77,5.17-4.85,11.21-3.2,17.04-2.89,2.9,.15,5.9,.55,8.35,2.68,2.05,1.78,3.18,3.91,2.9,6.48-.73,6.53-2.71,13.04-4.98,18.9-2.16,5.61-5.23,11.29-8.2,16.78-1.58,2.92-4.23,4.06-7.4,4.47-2.49,6.47,.23,13.75-4.13,19.49,1.01,1.2,1.93,1.97,2.46,2.96,1.49,2.78,2.8,5.64,1.21,8.88-1.59,3.25-4.3,3.78-7.56,3.32-2.46-.35-5,.41-7.97-.66-1.62-1.69-3.84-3.55-4.52-6.94-12.78,9.38-17.12,25.88-30.33,34.23-4.55-3.48-5.34-6.21-1.25-10.63,7.54-8.14,14.25-16.95,21.63-25.18,2.84-3.16,5.57-6.36,8.07-9.77,1.69-2.3,2.99-4.66,6.69-3.98,1.56,.29,3-1.56,2.66-3.41-.33-1.82,.61-3.07,1.71-4.53Zm-7.3,20.45s-.09,.08-.13,.12c.06,.04,.11,.07,.17,.11-.67-.04,.07,.43-.04-.23Zm12.62-49.33c8.98-2.17,14.23-7.51,13.83-13.8-8.65-2.32-12.25,1.16-13.83,13.8Zm4.08,12.75c-.69-.52-1.05-.22-1.26,.49,.61,.32,1.12,.41,1.26-.49Z" fill="#dac9b3"></path><path d="M342.48,265.52c.33,1.45,.61,2.9-.07,4.52-1.81,.38-3.57,.74-5.64,1.17-1.39,3.16-2.65,7.01-7.65,5.18-4.01-9.59,.31-30.79,7.55-36.86q3.49,1.15,5.73,9.42c2.93-4.36-1.08-8.95,.96-13.03,1.34-1.81,5.9-.32,4.22-4.52,6.9-.83,7.91,.78,9.57,14.33,1.47-.42,1.41-1.61,1.4-2.65-.07-7.63,2.74-14.89,2.71-22.55-.01-3.99,4.57-4.17,6.83-6.42,1.53,.77,2.86,1.44,4.13,2.07,3.57,7.11,4.37,14.95,7.03,23.73,1.62-11.78-1.38-22.31,1.56-32.59,1.33-2.35,4.64-2.04,5.89-4.35,7.81,1.97,10.27,5.38,8.49,13.15-1.7,7.39-.09,14.02,2.8,20.69-.33,2.74-2.21,4.69-3.88,7.05-1.17-.11-2.42-.23-3.78-.36-1.25,2.09-2.44,4.07-3.42,5.71-1.97,1.4-3.55,.17-5.09,.13-3.54,1.15-4.48,6.78-9.75,5.24-.62-1.01-1.36-2.21-2.72-4.42-2.4,5.73-4.1,12.22-11.79,7.89-.96,4.66-4.13,7.95-6.62,11.52-3.49-.31-5.95-2.2-8.48-3.93-.07-4.11,2.61-8.19,.14-12.33,.12-.35,.5-.78-.3-.86,.15,.27,.28,.52,.42,.76-1.14,4.09-.58,8.21-.24,12.33Z" fill="#dac9b3"></path><path d="M457.67,173.89c-4.86,8.29-4.21,16.87-1.78,25.49,.82,2.9,.54,5.51-.63,8-6.13,1.94-8.6,.31-9.7-5.29-1.15-5.86-1.36-11.83-2.25-17.64q-6.79-.3-8.93-4.39c4.18-8.19,12.27-11.55,19.25-15.64,2.65,.82,1.91,3.43,4.02,3.94,1.58-2.72,3.09-5.81,5.03-8.61,4.14-5.95,9.19-5.69,13.34,.75-2.83,3.48-3.16,7.2-.97,11.4,1.55,2.97-.35,5.45-2.53,7.36-1.35,1.18-3.09,1.91-3.61,3.89,1.28,2.29,4.34,1.7,5.88,3.82,1.47,6.46-3.74,9.99-6.88,14.6-2.37,.32-4.79,1.04-7.45,.41-2.38-2.15-2.79-4.56-2.11-7.92,1.33-6.68,.13-13.46-.71-20.17Z" fill="#dac9b3"></path><path d="M410.1,437.35c-2.54,.72-1.77,3.11-3.51,3.63-6.17,.41-8.3-2.68-10.47-15.33,2.6-3.8,7.78-2.15,11.17-5.54,2.8-2.81,7.25-4.24,9.65-7.91,3.45-.29,6.67-1.36,9.93,.34,1.45,.76,2.92-.27,4.3-.74,4.11-1.39,8.25-2.53,12.61-2.82,7.79-.52,10.16,.82,13.09,7.68,1.56,3.64-2.92,9.28-8.5,10.26-5.37,.94-10.9,1.06-16.19,2.28-4.86,1.13-9.64,2.92-12.84,7.34-2.76,3.82-6.13,3.36-9.23,.82Z" fill="#dac9b3"></path><path d="M456.09,505.04c1.11,1.19,2.01,2.16,2.96,3.17-.2,1.53-.41,3.1-.6,4.59-4.81,3.8-10.85,3.89-16.32,5.67-8.07,2.63-15.31,7.15-23.13,10.36-6.77,2.78-13.94,3.9-21.03,5.37-1.27,.26-2.69-.08-3.81,.8-7.62,5.98-17.26,7.23-25.79,11.09-3.17,1.43-6.4,1.39-9.52,1.51-1.86-1.76-1.63-3.82-2.15-5.62,2.89-3.67,7.05-4.61,10.82-5.93,2.31-.81,4.79-1.15,6.93-2.49,5.12-3.19,11.53-3.73,16.2-7.89,.67-.6,1.88-.83,2.84-.83,17.08-.08,30.28-11.36,45.83-15.88,5.46-1.59,10.65-4.16,16.76-3.9Z" fill="#dac9b3"></path><path d="M469.71,568.27c-3.66,5.45-9.27,6.28-15.12,6.49-2.91,.1-4.79,2.46-7.57,3.14-11.37,2.77-22.85,5.37-33.88,9.19-8.64,3-16.71,7.67-25.37,10.81-4.96,1.8-10.15,2.83-15.06,4.97-3.62,1.58-9.71-3.01-11.13-7.5,.77-1.62,2.05-2.55,3.88-2.57,13.01-.11,24.48-5.53,36.45-9.78,13.92-4.94,26.71-12.89,41.58-15.4,4.64-.78,8.93-3.5,13.73-4.28,6.4-1.03,9.61,.27,12.49,4.93Z" fill="#dac9b3"></path><path d="M365.82,276.31c2.87-2.08,5.73-.43,8.02-1.36,2.04-.53,1.58-2.62,3.11-3.86,1.36-.21,3.13-.72,4.91-.71,5.98,.03,11.4-1.26,15.85-5.6,2.94-2.86,6.72-3.38,10.82-3.09,4.65-7.91,15.28-4,20.34-10.62q5.23,1.24,3.22,12.14c-3.41,.78-6.71,2.31-10.39,2.59-1.65,.12-3.59,.64-4.26,2.25-2.29,5.49-6.4,5.49-11.49,3.74-2.84,6.04-8.99,8.62-13.41,13.6h-8.01c-1.36,3.14-2.61,6-3.66,8.41-1.99,1.64-3.86,1.37-5.99,1.42-3.61-2.37-6.04-6.34-9.77-9.06-3.54-2.59-.67-6.65,.71-9.85Z" fill="#dac9b3"></path><path d="M361.83,571.38c-.4-1.92,1.19-3.29,1.2-4.96,14.55-7.41,29.76-11.72,45.18-15.71,9.35-2.42,18.05-7.35,27.39-9.83,8.55-2.27,14.88-8.98,23.71-10.38,5.55-.88,8.31,.05,10.44,4.72-.37,2.22-4.83,1.91-2.59,5.92-5.34-2.47-9.38-.34-13.09,1.67-11.76,6.36-24.75,9.55-36.91,14.85-3.48,1.52-7.37,.97-11.1,1.91-11.85,2.96-23.22,6.82-33.98,12.62-3.38,1.83-6.96,1.78-10.26-.81Z" fill="#dac9b3"></path><path d="M465.92,445c-.09,1.66,.11,3.32-.99,4.42-3.38,3.38-4.73,7.91-7.05,11.88-3.36,5.75-4.71,6.2-10.42,3.96-7.43,3.08-14.28,7.33-22.68,4.74-1.27-.39-2.76-.13-3.64,1.07-2.8,3.84-6.51,4.54-10.95,3.3-.46-2.36,2.55-5.11-1.66-7.19,6.73-3.87,11.76-8.6,18.69-10.6,5.62-1.62,9.69-6.09,14.02-9.91,5.84-5.14,19.41-6.21,24.67-1.67Z" fill="#dac9b3"></path><path d="M400.11,195.71c3.18-.06,5.27-4.89,9.63-2.21,4.01,2.46,6.37,5.59,4.77,10.25-1.43,4.17-.24,7.23,2.25,10.56,2.89,3.87,5.07,8.23,3.63,13.32-3.07,2.56-6.03,.77-9.01-.17-.34,2.05-.54,3.85-.96,5.6-.8,3.34-3.25,4.59-6.39,4.19-3.27-.42-5.3-2.75-4.9-5.88,1.14-8.88-.42-17.54-1.15-26.29-.24-2.89-.06-6.34,2.14-9.36Z" fill="#dac9b3"></path><path d="M434.67,219.52c-9.32,1.51-12.71-2.41-14.66-9.04-1.92-6.49-1.62-13.09,1.32-19.38,.14-.3,.33-.58,.45-.89,3.89-9.22,5.88-9.81,13.1-4.68,4.26,11.93,5.16,23.18-.21,33.99Z" fill="#dac9b3"></path><path d="M364.13,490.47c-1.37-1.71-2.7-3.36-4.17-5.19,1.2-5.02,5.23-7.28,9.49-8.39,6.41-1.67,12.24-4.96,18.8-6.2,2.89-.55,5.7-1.52,7.85,1.01,2.22,2.62,.73,5.38-.63,7.88-1.96,3.61-5.03,4.9-9.18,5.61-7.28,1.26-14.28,4.01-22.16,5.28Z" fill="#dac9b3"></path><path d="M364.42,358.37c.05-2.14-.71-3.91,1.33-5.3,3.51,0,7.51-1.09,10.96,1.95-2.7,6.82-8.79,10.67-13.9,14.94-7.31,6.1-15.29,11.34-21.5,18.75-2.31,2.76-5.05,1.56-7.08-.83-1.97-7.34,3.88-9.95,8.14-12.6,7.92-4.91,14.1-11.87,22.05-16.91Z" fill="#dac9b3"></path><path d="M382.59,445.02c-3.53-2.29-6.4-2.45-9.64,.42-1.93,1.71-5.03,1.14-7.74-.51-2.96-8.54,4.84-11.5,8.56-16.8,4.57,1.25,9.38,.16,13.47,3.14-.03,5.1,.81,10.36-4.65,13.76Z" fill="#dac9b3"></path><path d="M434.13,126.42c.09-10.16,8.74-16.36,18.75-13.26,.23,.6,.56,1.34,.8,2.11,1.1,3.53,5.03,7.52,.26,10.52-3.42,2.15-7.85,3.11-11.95,3.66-2.73,.36-6-.2-7.87-3.02Z" fill="#dac9b3"></path><path d="M444.77,251.35c-1.9-.97-3.71-1.53-4.47-3.87,2.51-7.21,9.97-7.85,15.45-11.54,2.49,2.77,4.67,5.18,6.8,7.55-4.31,6.44-11.68,5.39-17.78,7.87Z" fill="#dac9b3"></path><path d="M356.37,294.43c-2.52,6.59-9.01,6.86-14.32,8.64-2.66,.89-5.16-.67-6.2-3.63,.86-6.82,6.96-7.46,11.59-9.29,3.59-1.42,6.6,.94,8.93,4.28Z" fill="#dac9b3"></path><path d="M348.54,152.46c4.71,1.9,5.8,6.67,7.71,10.76-2.25,4.29-5.97,5.38-10.16,4.87-2.62-.32-4.89-2.26-5.14-4.79-.52-5.22,2.58-8.53,7.58-10.84Z" fill="#dac9b3"></path><path d="M442.88,210.31c1.85-.29,3.55-.56,5.81-.91-.94,2.65-3.1,3.14-4.26,4.91-1.75-1-1.13-2.59-1.55-3.99Z" fill="#dac9b3"></path><path d="M529.9,250.58c-.1,.08-.21,.16-.31,.25-.09-.17-.18-.35-.27-.52,.13-.02,.29-.09,.39-.05,.09,.04,.13,.21,.19,.32Z" fill="#dac9b3"></path><path d="M304.74,808.02h1.21c-.4,0-.81,0-1.21,0Z" fill="#dac9b3"></path></g></svg>