<svg xmlns="http://www.w3.org/2000/svg" id="b" width="157.78mm" height="361.85mm" viewBox="0 0 447.26 1025.72"><g id="c"><path d="M70.06,161.8c-6.42-6.4-3.99-14.5-3.79-21.91,.36-13.69,2.61-27.21,.12-41.08-1.74-9.7-.14-19.96-3.51-29.57-2.98-8.5-2.49-17.65-5.09-26.24-1.34-4.43-5.09-7.84-5.25-13.03,2.19-.41,3.95-1.46,5.29-2.99,1.85,.29,3.48,.55,5.7,.91,1.81-6.87,1.22-14.12,4.9-22.03,5.66-3.9,12.24-7.41,22.16-5.15,9.57,2.18,18.93,5.71,28.96,6.41,6.24,.44,12.29,3.23,17.53,6.69,3.55,2.35,3.46,7.35,4.5,11.2,1.55,5.74,1.88,11.8,2.87,17.7,.4,2.42-.53,4.3-2,5.92-3.72,4.1-6.49,8.71-8.56,13.86-2.2,5.46-2.92,10.83-.36,16.31,2.29,4.91,2.56,10.55,1.46,15.19-2.13,8.98-.77,17.86-1.36,26.76-.49,7.41-1.43,14.78-1.69,22.22-.21,5.95,.62,11.6,2.05,17.22,1.08,4.24,.81,7.88-2.89,10.76,1.1,12.43-.82,25.18,3.87,36.94,3.99,9.99,6.27,20.95,13.75,29.27,8.01,8.91,14.88,18.88,24.89,25.93,4.43,3.12,8.61,6.6,10.62,12.14,.86,2.37,3.07,4.29,4.81,6.29,6,6.93,10.73,14.99,14.57,22.96,5.57,11.56,10.33,23.84,8.98,37.58-.9,9.19,.01,18.55,3.01,25.93-.3,7.36-7.96,3.78-9.88,8.25,3.31,1.92,5.62,.18,7.94-.31,10.32-2.21,20.77-3.88,31.16-5.45,8.42-1.27,17.15-1.37,25.75-1.7,5.95-.23,11.91-.15,17.87-.2,13.96-.13,27.74,2.36,41.65,2.91,2.96,.12,5.79,1.21,8.75,1.66,16.47,2.49,33.11,4.65,47.28,14.67,1.05,.74,2.45,1.55,3.63,1.46,7.92-.57,10.88,4.95,13.67,10.77,3.82,7.96,5.25,16.85,9.59,24.62,1.26,2.25,1.53,4.71,.28,7.2,5.01,4.15,5.19,10.38,7.23,15.68,2.95,7.7,6.16,15.39,7.46,23.64,.1,.65,.48,1.26,.53,1.91q.48,6.6,4.52,10.34c-1.4,4.59,1.05,8.54,2.18,12.96,2.5,9.78,8.8,18.37,7.95,29.34-.5,6.49,2.97,13.21,3,19.83,.06,10.51,3.41,21.17-1.83,31.6-3.22,6.4-2.65,13.99-4.14,20.98-.98,4.58-2.79,8.65-5.54,12.53-1.92,2.71-2.26,6.49-3.88,9.48-6.46,11.97-13.14,23.82-25.41,31.08-8.97,5.31-17.94,10.62-26.97,15.84-14.01,8.1-29.21,13.11-44.1,19.01-6.71,2.65-11.04,7.17-13.32,14.78-4.71,15.73-4.15,31.79-5.12,47.78-.35,5.8-1.1,11.57-1.39,17.37-.25,4.79-.38,9.61-.07,14.39,.75,11.36-.14,22.72,1.26,34.13,1.96,15.98,.37,32.24,1.75,48.23,1.08,12.51-1.74,24.89-.03,37.11,1.43,10.18,.87,20.5,2.95,30.51,1.3,6.28,6.09,10.18,12.25,11.76,3.37,.86,6.32,1.87,8.28,4.92,1.16,1.81,3.41,1.92,5,2.93,12.79,8.11,27.88,9.28,41.75,14.1,9.22,3.2,18.7,5.77,28.22,7.93,7.65,1.73,10.77,7.76,14.87,13.28-.55,8.7-5.67,14.74-12.22,19.5-5.16,3.76-10.86,6.24-17.32,8.09-10.55,3.02-21.63,3.92-31.83,8.17-1.2,.5-2.64,1.05-3.85,.85-14.39-2.33-28.05,3.36-42.12,3.72-9.03,.24-18.17,.16-27.24-.94-6.1-.73-12.4-.17-18.39-1.33-13.21-2.55-26.77-2.78-39.78-5.91-4.83-1.16-9.37-1.02-14.06-1.47-7.88-.74-15.07-4.06-22.39-6.74-4.5-1.65-8.71-4.13-13.22-5.74-9.68-3.45-11.21-17.47-3.66-24.45,7.36-6.81,16.3-9.92,25.7-12.4,9.3-2.46,18.39-6.23,27.7-7.97,7.83-1.46,14.74-4.55,21.99-7.11,5.37-1.9,9.35-6.17,13.58-9.63,4.29-3.5,6.36-9.12,6-15.14-.08-1.27,.28-2.63,.69-3.87,1.41-4.32,1.45-8.63,1.26-13.2-.59-14.1-.49-28.23-.65-42.35-.02-2.16,.15-4.33-.04-6.47-.99-11.21,1.68-22.43,.05-33.6-1.02-6.98,1-13.93,.47-20.6-.6-7.55-.5-15.04-.93-22.52-.42-7.26,.6-14.46-.35-21.75-1.6-12.36-2.38-24.85-6.63-36.67-4.1-11.38-10.89-20.98-20.34-28.61-.89-.72-1.88-1.39-2.93-1.85-1.03-.45-2.36,.11-3.31-.88-1.04-6.04-1.12-5.88-7.21-9.21-4.24-2.32-8.37-4.77-13.09-6.41-3.37,3.18-3.63,6.89-3.8,11.46-.31,8.41-.46,16.86-1.11,25.27-.89,11.39-1.82,22.77-1.09,34.24,.37,5.76-.91,11.63-.54,17.4,.59,9.15-.66,18.23-1.34,27.23-.74,9.9-1.09,19.84-2.02,29.73-.79,8.42,.1,17.02-.98,25.31-1.38,10.62,.59,21.29-2.09,31.94-1.78,7.08-1.51,14.79-2.21,22.22-.78,8.28-3.05,16.01-5.92,23.77-1.88,5.08-3.11,10.26-8.36,12.91-9.01,4.55-18.03,9.18-28.19,10.7-9.04,1.35-18.06,3.13-27.08,4.19-7.75,.92-15.94-.58-23.77-1.94-8.5-1.48-16.94-1.22-25.35-.45-3.12,.29-5.89-.13-8.77-.71-6.87-1.38-13.87-1.27-20.81-1.51-9.24-.32-18.1-1.95-26.95-4.59-4.34-1.3-8.65-1.39-12.59-4.69-8.66-7.25-16.71-14.02-18.08-26.65-1.52-13.97-2.17-27.94-3.18-41.91-.8-10.96-.69-21.86-.89-32.77-.13-6.7,.55-13.47,1-20.17,.61-9.16,0-18.29,.48-27.41,.6-11.42,1.36-22.83,2.32-34.23,.49-5.9-.14-12.2-.61-18.26-1.1-14.26-1.83-28.63-2.06-42.81-.18-11.22-.93-22.5-.98-33.76-.07-16.03,.87-32.06-.25-48.12-1.16-16.67-2.12-33.55-.36-50.12,2.29-21.46,1.56-42.92,2.09-64.36,.22-8.8-.3-17.83-.9-26.75-.72-10.75,.89-21.62,.33-32.26-.58-11.12,.76-22.15-.22-33.26-.8-8.99,.48-18.14,.17-27.2-.29-8.46-2.38-16.93-2.02-25.33,.49-11.63,1-23.23,4.01-34.84,1.64-6.35,3.97-12.42,6.36-18.23,5.58-13.56,13.61-25.62,24.75-35.75,8.96-8.15,14.79-19.11,20.38-29.81,3.07-5.89,3.09-12.88,3.22-19.55,.18-8.83,.17-17.52,3.19-26.17,1.79-5.11,1.91-10.99,1.54-16.68-.22-3.27-.27-6.84,3.28-9.04,1.2-.74,2.33-1.9,2.9-4.05Zm115.17,469.9c-.5,0-.85-1.02-1.47-.22,.49,.67,1.03,.45,1.58,.11-.58,1.5-.56,2.88,.6,4.17,6.25,6.99,12.08,14.47,21.64,17.39,2.37,.72,4.67,1.78,6.86,2.96,8.58,4.64,16.9,9.81,25.69,13.98,9.34,4.43,17.26,11.29,26.9,15.12,.95,.38,1.62,1.16,1.94,3.01,.28,1.34-2.54,1.41-2.65,3.3,1.59,2.26,2.91,4.87,4.88,6.82,10.63,10.49,15.79,23.88,17.96,37.95,2.26,14.67,2.35,29.7,1.55,44.63-.09,1.65-.76,3.39-.43,4.93,2.53,11.89-.45,23.84,.6,35.76,.82,9.26,.37,18.62,1.14,27.88,.97,11.74,.29,23.46,.33,35.18,.02,4.48-.62,8.99-.28,13.44,.91,11.94,1.48,23.9-1.24,35.62-1.13,4.88-1.39,10.82-7.53,13.07-.26,.09-.4,.51-.6,.79,.19,1.44,.38,2.9,.61,4.61-4.42,3.41-7.56,8.21-12.74,10.82,10.47,3.64,32.89,5.49,35.67,2.96,.34-1.43,.68-2.86,1.09-4.61,5.7-1.95,11.65-2.48,17.52-3.36,2.21-.33,4.59-.37,4.83-3.24,.25-3.04-2.06-3.87-4.47-4.36-2.42-.49-4.93-.5-7-2.28-5.85-5.03-12.23-9.7-10.13-18.98,.13-.59-.27-1.29-.35-1.95-.88-7.08-2.1-14.14-2.53-21.24-.58-9.61,.65-19.22,.88-28.83,.25-10.62-1.53-21.35-.56-31.86,1.26-13.58-1.12-26.84-1.56-40.24-.41-12.26,.35-24.47,.1-36.72-.22-10.75,.55-21.53,1.01-32.29,.52-12.11,1.69-24,5.64-35.71,4.08-12.1,12.92-19.54,23.31-24.47,7.65-3.63,15.94-6.3,23.89-9.61,14.67-6.1,28.14-14.18,41.28-22.76,11.08-7.24,18.09-18.3,23.71-30.19,4.37-9.23,6.17-19.23,9.08-28.91,3.08-10.22,4.24-20.24,2.69-30.88-1.67-11.46,.52-23.25-3.74-34.62-3.24-8.66-5.37-17.78-7.48-26.81-3.55-15.21-11.35-29-14.4-44.39-2.11-10.64-7.52-20.24-10.71-30.59-1.29-4.19-3.08-8.77-6.81-11.97-6.6,2.58-12.91,5.05-18.81,7.36-1.43,2.7,.27,5.74-2.2,7.76-1.59-1.69-.61-4.33-3.31-5.63-2.91-.56-6.3-.58-8.16,.4-4.55,4.3,2.72,7.9-1.51,11.76-1.94-3.82-1.16-8.29-4.57-11.47-8.74,1.31-17.7,2.65-26.82,4.02-.09,9.9,3.28,18.94,3.82,28.32,.55,9.52,1.45,19.11-1.36,28.72-1.79,.87-3.56,1.96-5.45,.25-1.72-1.54-.88-3.41-.29-5.12,1.1-3.15,1.51-6.27,1.58-9.69,.09-4.34-.85-8.6-.63-12.77,.37-7.39-.89-14.57-1.47-21.83-.21-2.64,.04-5.77-3.02-8.28-28.14,1.57-56.81-.38-85.75,.48,.73,12.03-2.21,22.96-3.55,34.07-1.66,13.83-3.35,27.62-3.57,41.6-.06,4.1,1.8,10.21-5.4,11.94-2.75-3.56-6.6-1.78-10.08-1.95-5.24-.26-7.71-3.53-6.5-8.54,1.29-5.34,2.41-11.16,2.64-16.2,.57-12.29,2.65-24.35,3.68-36.54,.73-8.65,.14-17.37,2.01-25.76-2.4-1.43-4.56-1.63-6.68-1.97-2.91-.46-5.07,.62-5.76,3.47-1.77,7.25-4.85,14.61-4.61,21.83,.4,12.2-4.46,23.29-5.37,35.22-.72,9.3-2.22,18.9-4.64,28.23-2.48,9.53-3.33,19.48-4.82,29.26-.26,1.72-1.13,3.48-.27,5.26,1.37,.33,2.08-.69,2.46-1.43,3.55-6.95,10.19-8.42,16.92-9.83,2.11-.44,4.16-1.2,6.26-1.73,6.52-1.65,7.81-1.1,11.7,5.31-3.24,3.78,2.47,10.58-3.98,14.04-5.04-2.52-2.06-8.15-5.41-11.45-9.62-.42-17.27,3.54-21.83,10.52-3.61,1.59-5.21-.53-7.38-1-1.4,5.3,.33,10.49-.86,15.82-6.08,.68-5.73-4.3-7.26-7.65,.7-1.28,2.44-1.96,2.44-3.62,.02-5.38,1.97-10.42,2.68-15.64,2.9-21.21,7.5-42.14,9.71-63.49,1.07-10.32,2.84-20.7,4.44-31.02,1.1-7.14,1.7-14.71,.25-22.12-4.48-1-8.26-3.4-13.18-3.21-1.48,7.25-4.29,14.08-5.74,21.42-2.04,10.38-5.3,20.51-7.39,30.88-2.07,10.23-5.05,20.28-5.82,30.78-.44,5.93-2.11,11.75-2.69,17.68-2.2,22.36,.52,44.59,2.02,66.85,.33,4.98,.65,10.34,3.32,14.48,3.66,5.68,4.88,12.32,8.27,17.93,2.5,4.14,4.12,9.04,8.46,12.3,.94-1.27,1.75-2.37,2.62-3.55-2.91-1.47-3.99-3.99-6.18-7.09,5.05,.33,5.59-5.19,9.89-5.37,3.88,3.29,3.12,8.18,4.42,13.01,6.03,1.56,8.66,8.2,14.25,11.31-1.5-4.77-1.66-9.35-2.56-13.73,1.44-1.91,2.68-3.82,5.07-4.05,7.79-.74,15.53-.6,23.07,1.84,1.52,.49,2.72,1.68,2.78,3.25,.15,3.79,2.87,6.64,3.2,10.49,5.09,.83,8.12,2.34,8.22,8.8,.06,4.2-.62,8.82,.61,13.25,4.94,1.25,9.86,1.06,14.62,1.11,1.33-2.54,2.44-4.67,3.59-6.85-7.61-5.63-14.11-11.94-17.77-21.63,3.15-.25,5.08-.4,7.57-.6,5.81,7.32,10.97,15.45,18.85,20.84-1.15,3.35-2.06,5.99-2.96,8.61,.49,1.47,.95,2.88,1.34,4.05-.83,4.13-4.53,4.88-7.08,7.22-6.94-1.51-13.81-3.51-21.05-3.45-2.13,.02-4.61-1.23-6.36-2.63-3.54-2.83-7.69-3.76-11.82-5.03-4.72-1.46-10.15-2.25-13.82-5.17-7.69-6.1-14.85-12.87-23.24-18.08Zm-5.78,111.29c1.78-12.9,1.31-24.59,3.27-36.06,.56-3.26,.99-6.7,.57-9.94-1.54-12.01,1.38-23.83,1.29-35.81-.04-4.7-1.11-7.65-3.91-10.93-9.93-11.62-18.86-23.94-25.3-37.91-3.89-8.43-7.46-17.02-9.06-26.19-1.05-6.02-1.1-12.21-1.6-18.32-1.29-15.82-2.41-31.68-.57-47.51,.53-4.6,0-9.24,1.21-13.82,3.25-12.27,3.81-24.99,7.5-37.36,2.96-9.93,4.98-20.6,6.18-31.14,.45-3.96,3.05-7.48,2.67-11.25-6.78-1.67-13.07-1.18-19.26-1.31-9.06-.2-18.15,.9-27.23,1.51-9.11,.62-18.23,2.05-27.32,1.83-19.93-.47-39.85-1.68-59.77-2.78-4.8-.27-9.66-1.09-12.16-5.65-.47-1.99,1.38-3.47,.03-5.31-1.97,.62-2.26,1.64-2.11,3.68,.34,4.77,.52,9.62,.07,14.37-1.58,16.69-.98,33.39-.93,50.09,.02,6.31,1.77,12.68,1.33,18.7-.86,11.77-1.35,23.65-.87,35.26,.7,16.99-3.37,33.6-2.13,50.63,.47,6.43,.73,13.16,.62,19.76-.18,11.6,1.7,23.13,.86,34.81-.68,9.44-1.15,19.03,.48,28.41,2.02,11.61,.22,23.32,1.64,34.98,1,8.2-.2,16.65,.53,24.95,3.76,.26,5.45-2.27,7.59-4.03,6.01,1.98,3.03,7.96,6.19,12.57,49.22,6.55,99.52,3.58,150.18,3.77ZM123.4,159.24c-2.06-23.98,2.71-47.77,.87-72.42-8.78,.76-15.94-3.46-23.99-2.29-1.27-4.73,1.6-6.1,4.91-6.3,5.38-.33,10.79-.09,16.85-.09-3.82-11.97,1.61-20.62,7.65-28.29,6.46-8.19,3.46-16.67,3.25-25.2-1.03-1.06-1.79-2.53-3.87-1.93-2.25,2.38-1.99,5.7-2.5,8.44-4.32,4.59-8.54,8.5-15.37,6.26-1.05-.35-2.74,.28-3.77,.99-5.8,4.03-11.25,3.08-16.59-.83-1.75-1.28-3.45-2.94-5.97-.06,2.39,11.37,4.29,23.17,.18,34.73-3.12,1.3-6.43,.22-8.98,2.25v81.77c8.05-6.09,14.22-5.9,22.39-.29,1.32,1.25,.17,3.5,2,4.45,7.48-.89,15.1,.65,22.95-1.18Zm57.29,241.44c4.4,4,10.13,5.12,15.82,5.89,14.61,1.98,29.15,4.36,44.01,4.19,9.41-.11,18.84,1.04,28.25,1.69,14.54,1.01,29.06-2.59,43.62-.2,1.76,.29,3.66,.39,5.1-.32,1.79-1.05,1.35-3.92,3.74-3.76,2.02,.44,1.48,3.18,3.49,3.43,9.1-.65,18-2.97,27.02-3.66,6.11-.47,11.43-1.23,15.51-5.91,4.77,2.32,9.9,1.42,17.69-2.98-2.92-3.71-13.76-10.02-20.08-11.22-17.14-3.25-34.55-4.95-51.57-8.86-5.83-1.34-11.51,.18-17.29-.35-14.54-1.31-29.09-.85-43.61,.7-16.15,1.72-31.88,5.98-47.99,7.94-2.34,.29-5.11,1.19-6.12,3-3.59,6.42-8.89,7.3-14.96,5.66-1.98,1.1-2.34,2.72-2.63,4.75Zm64.4,569.13c-6.14,1.86-12.13,4.12-18.57,4.77-7.36,.74-13.84,4.63-20.91,6.49-3.28,.86-6.04,2.88-8.6,4.93-2.64,2.1-2.67,4.87,.12,7.19,1.53,1.27,3.13,2.4,5.09,3.06,6.38,2.13,12.68,4.48,19.55,4.55,14.23,.14,27.35,6.17,41.32,8.05,4.81,.64,9.52-.41,14.22,.78,7.02,1.79,13.92,3.89,21.47,1.57,3.47-1.07,7.51-1.63,11.36-1,10.95,1.78,21.78-.74,32.63-1.25,10.16-.48,20.35-2.2,30.38-4.39,2.85-.62,6.25,.42,8.76-1.23,4.49-2.93,9.44-2.62,14.35-3.19,5.87-.68,11.37-2.58,15.68-6.88,3.11-3.1,2.63-6.88-1.13-9.09-2-1.17-4.1-2.24-6.28-3.01-11.82-4.2-23.59-8.6-36.18-10.06-2.29-.27-4.57-.96-6.73-1.78-5.28-2-10.49-4.18-15.72-6.32-2.21-.9-4.35-1.73-6.5,.22-3.71,3.37-8.3,3.8-13.05,3.92-4.86,.12-9.72,.53-14.21,.79-1.23,3.36,1.66,4.94,1.39,7.51-.82,2.6-2.46,4.44-5.47,4.92-2.73,.44-5.79,.3-7.3,3.41-.52,1.65,1.86,2.41,1.17,4.31-.86,1.38-1.91,2.85-3.54,3.35-2.34,.29-3.29-1.96-6.16-2.23-7.31,5.65-16.83,6.72-26.4,7.68-.98,.1-1.98,.42-2.87,.85-6.01,2.91-12.38,2.84-18.44,1.02-6.51-1.95-12.95-4.08-19.54-5.77-5.09-1.3-6.2-5.19-3.38-9.95,5.19-1.68,10.6,.87,16-.81,.72-1.12,1.51-2.34,2.3-3.57,4.34-2.72,9.19-.26,13.79-1.7-3.55-1.52-5.89-4.29-8.61-7.12ZM29.51,345.28c2.5,16.67,4.95,32.97,7.51,50.05-2.76,2.91-.41,7.54-1.37,11.52-3.4,4.64-7.44,3.53-11.93,1.12-.2,2.33-1.9,3.88-.5,6.69,6.03,.85,12.43,1.46,18.76-.07,3.36-.81,6.51-.52,9.85-.26,7.23,.55,14.44,2.2,21.54,1.3,1.28-1.35,1.99-2.64,2.15-4.19,1.56-14.55,2.26-29.14,1.93-43.76-.07-3.06,.27-5.56,2.45-7.7,3.81-3.73,6.86-8.17,10.17-12.28,2.7-3.35,4.78-7.13,7.98-9.23,4.87-7.45,1.95-14.64,.87-21.97-6.31,1.36-11.47,6.24-18.35,3.78-.18,1.79-.35,2.93-.4,4.08-.39,9.24,.18,18.48-1.38,27.73-1.28,7.56-2.83,14.35-11,17.21-2.71,.95-3.78,3.03-4.25,5.64-1.7,9.39-.71,18.18,5.79,25.71,2.48,2.87,4.07,6.01,3.55,9.89-3.71,3.35-8.24,3.99-10.52,1.12-2.36-2.96-4.5-6.17-6.3-9.5-6.06-11.17-4.56-23.09-3.31-34.77,2.98-2.53,5.75-4.89,8.6-7.31-2.25-11.99-.21-24.02-1.79-35.89-.9-6.79,.36-13.78-3.1-20.42-1.16-2.23-1.15-6.01-.61-9.22,1.28-7.6,4.28-14.56,7.79-21.29,1.19-2.28,1.64-5.25,4.24-6.59,5.5-2.83,9.95-6.75,13.46-11.87,2.66-3.89,6.17-6.88,10.79-8.45,2.17-.74,4.22-1.88,6.24-4.28-1.62-3.58-.66-8.26-4.42-13.35-.64,7.71-3.86,11.2-10.15,9.84-11.04,10.4-15.61,25.28-27.93,33.38,.82,2.4,3.33,2.39,3.29,5.37-2.98,6.2-10.93,8.17-15.32,13.56-.11,1.95,2.24,2.31,1.9,4.88-6.59,12.24-3.15,26.05-2.95,39.74-3.09,4.17-6.44,8.23-13.29,9.77Zm31.7,556.1c-4.16-6.37-3.8-14.66-4.93-22.52-1.05-7.38,1.03-14.85-.1-22.32-.39-2.56,.2-5.27,.3-7.91,.45-11.73,2.61-23.44-.21-35.21-.86-3.59-1.73-8.04,1.62-10.83,3.39-2.83,6.38-6.13,10.53-8.22,3.49-1.75,8.34-2.69,9.24-7.56,.66-3.53,.49-7.2,.92-10.78,.84-6.89-2.64-13.2-2.17-20.16-8.53-.88-16.69-1-25-.35-1.62,6.81-2.24,12.89,1.82,18.84,3.14,4.6,1.84,9.22-3.37,11.54-5.3,2.36-7.95,6.76-10.76,10.79,1.31,5.24,.58,10.05,.78,14.8,.54,12.44-1.96,24.87,.16,37.37,1.5,8.83,3.41,17.56,5.33,26.3,1.64,7.48,.88,15.27,3.09,22.72,.98,3.3-.92,6.23-3.96,7.91-2.81,1.55-5.47,.98-7.68-1.41-1.89-2.04-4.08-2.7-7.12-1.36-.9,6.13-6.51,9.47-9.65,14.18,4.33,11.9,14.75,13.57,25.02,16.07,3.69-2.87,8.99-2.64,12.81-5.49,1.54-3.45,1.26-6.59-.37-9.1,1.25-11.42,12.84-7.16,17.96-12.21-.45-1.98-1.08-3.29-2.71-4.39-3.37-.37-6.99,3.49-11.55-.7ZM102.09,181.44c4.1,3.35,3.78,7.31,4.13,11.07,.89,9.58,2.7,19.18,2.42,28.72-.32,10.76,2.29,20.22,9.06,28.15,12.82,15.01,25.69,29.92,35.85,46.97,4.19,7.04,4.51,6.85-.12,13.02,3.66,8.44,5.31,17.36,7.45,26.11-1.61,1.33-2.86,2.37-4.11,3.39-.48,8.77,1.58,17.35,.33,26.01-.6,4.16-3.18,6.8-7.13,6.33-2.1-.25-2.83-2.56-5.14-3.3,.9,6.49,.54,12.62,.39,18.76-.08,3.23-.45,6.61-3.26,8.57-4.44,3.09-4.22,7.37-4.16,11.96,4.38,.42,9.11,.86,10.13-4.13,1.9-9.23,7.61-16.85,9.81-25.99,2.83-11.76,8.41-22.69,11.74-34.39,2.5-8.8,.93-19.6,11.27-24.64-.51-2.29-.48-4.13-1.28-5.46-10.73-17.76-18.77-37.51-37.13-49.63-4.01-2.65-7.76-5.56-12.63-6.3-2.47-.37-4.49-1.52-5.84-3.46-3.26-4.68-5.8-9.82-6.8-15.42-2.97-16.74-2.79-33.65-1.42-50.51,.38-4.7,.04-8.88-2.21-12.33-.51-1.92,1.62-2.64,.61-4.51-8.47,3.47-17.36,1.1-26.71,1.16,1.46,2.59,2.64,4.7,3.87,6.89,4.22-.52,7.29,3.01,10.89,2.96Zm24.27,574.67c6.77,17.63,3.05,35.6,6.01,52.8,1.4-.13,2.16-.87,2.61-1.71,4.67-8.81,8.54-18.03,13.96-26.45,.58-.9,.79-2.32,.57-3.38-1.46-7.1-.56-14.49-2.82-22.14-6.61,1.01-13.3,1.28-20.34,.88Zm93.09-264.63c4-23.77,6.72-48.01,5.43-72.78-2.1-.6-4.32-.63-6.62,.74-3.86,25.2-1.67,50.93-6.04,76.57,2.24-1.4,4.18-2.61,7.23-4.52ZM121.07,19.35c-7.01-3.93-14.77-4.69-21.79-7.53-7.89-3.2-16.06-3.54-24.06,.27-1.5,.72-2.71,1.3-2.07,3.34,.33,.24,.69,.64,1.13,.79,6.44,2.2,12.38,4.84,17.67,9.66,2.65,2.42,7.09,6.7,11.36,4.63,4.57-2.21,9.15-2.25,13.99-2.59,1.27-2.9,2.44-5.57,3.76-8.57Zm-41.61,35.42c-4.23-9.22-1.91-19.42-9.55-27.57-2.15,5.76,1.23,10.12-.13,14.43,2.14,2,3.89,3.51,4.66,6.16,.63,2.2,.57,5.35,5.02,6.98Zm123.61,292.81c1.66-7.08,.07-16.25-3.72-20.64-2.13,7.39,2.56,13.74,3.72,20.64Zm-50.04,585.43q-2.49,1.77-3.97,4.27c4.79,2.28,8.18,1.8,11.56-1.64-1.99-2.12-4.74-2.02-7.6-2.63Zm61.96-295.97c10.04,8.04,11.19,8.39,14.42,4.59-4.13-2.52-8.45-4.08-14.42-4.59Zm-3.16,34.03c-.34-3.05-2.49-3.09-5.15-3.13,.24,1.56-.34,2.88,.95,3.95,1.41,.32,2.84,.67,4.21-.82Zm47.16,307.55c3.81,.38,6.28,1.54,8.86,.18-2.54-.01-4.82-2.37-8.86-.18ZM71.3,229.59c1.06-2.46,.63-3.81-1.1-5.06-.81,1.84-.54,3.22,1.1,5.06Zm114.46,127.58c2.18-1.12,1.86-2.56,1.51-5.3-1.41,2.32-2.25,3.48-1.51,5.3Zm-91.78-72.1c2.01-1.77,3.69-2.26,3.5-4.64-2.36,.18-3.22,1.35-3.5,4.64Zm-64.6,43.57c-.51,1.35-1.53,2.7-.67,4.86,1.52-1.72,1.46-3.2,.67-4.86ZM95.59,923.68c-.89-.19-2.03-1.17-2.67,.51,.99,.85,1.85,.73,2.67-.51Zm27.93-506.53c-.43-1.59-1-2.29-2.37-1.36-.09,1.61,.71,1.87,2.37,1.36Zm56.84,513.64c-1.08-.28-1.54,.08-1.55,.88,0,.22,.38,.61,.62,.65,.89,.12,1.12-.42,.93-1.53ZM25.49,750.79c.41,.99,.88,1.36,1.33,.56,.19-.35-.37-.75-1.33-.56Zm63.29-457.14c-.16-.21-.3-.4-.43-.58-.1,.1-.3,.25-.28,.29,.1,.21,.26,.38,.4,.57,.11-.09,.21-.19,.32-.28Zm12.63-17.91c-.21,.18-.42,.37-.63,.55,.24,.1,.48,.19,.72,.29-.03-.28-.06-.56-.09-.84Zm105.14,509.06c.01-.13,.04-.26,.02-.38,0-.03-.19-.03-.29-.04,0,.13-.04,.26-.01,.38,0,.03,.18,.03,.28,.04Z" fill="#dac9b3"></path><path d="M167.86,592.88c.22-2.55-.18-5.33-.96-8.14,6.96-7.02,11.09-16.05,17.08-23.75,5.56-7.14,11.66-8.67,20.17-5.25,2.13,.86,4.41,1.33,6.58,1.97q1.45-3.58,4.97-4.97c1.42,4.26,5.36,7.83,2.45,13.1,2.03,.91,4.27,.79,6.31,.23,10.84-2.96,21.81-4.51,33.03-3.36,4.41,.45,5.78-2.1,6.82-5.78-.76-.35-1.32-.83-1.88-.84-5.73-.09-10.2-2.29-13.09-7.43-1.91-3.39-4.97-5.22-8.61-5.61-1.51-2.08-1.36-4.23-.6-5.98,4.16-9.6,4.83-19.79,5.52-30,.39-5.84,3.83-8.41,9.53-7.76,3.53,.4,6.82,.85,9.08,3.56,3.47-.46,3.93-2.76,3.72-5.21-1.09-12.64-.37-25.26,1.24-37.75,1.16-8.94-.08-18.54,5.71-27.14,1.35,2.45,1.36,4.93,1.02,6.88-1.5,8.7-.54,17.57-2.2,26.23-.06,.33,.02,.78-.17,.96-3.7,3.47-2.08,7-.34,10.69,2.87,6.07,2.27,12.89,3.87,19.3,2.34,9.33-9.79,16.91-16.47,15.09-2.26-.61-2.67-3.55-5.37-3.6-2.02,.94-2.82,3.03-2.11,4.87,2.08,5.37-.53,10.04-1.86,14.83-.84,3.05-1.43,6.12-2.29,9.3,2.01,3.93,6.57,5.6,8.25,9.93,6.22-.46,12.61-2.05,16.24,5.45-.43,2.54-1.79,5.47-1.5,8.59,1.27,1.13,2.68,1.29,4.23,1.36,11.32,.54,22.54-.67,33.82-1.34,12.85-.76,25.8-1.14,38.7,.91,8.67,1.37,17.5,1.69,26.25,2.5,10.91,1.01,21.93,1.39,32.54,4.46,3.78,1.1,6.79,.18,9.47-2.26,3.06,1.57,2.71,4.67,4.21,6.78-2.98,5.91-4.31,12.26-8.25,17.59-4.22,5.72-8.83,10.28-16.43,10.56-10.99,.4-21.83,2.08-32.68,3.75-18.88,2.92-37.86,3.06-56.85,1.45-5.93-.5-11.59,1.16-17.41,1.13-12.32-.07-24.66-.78-36.94-.21-14.67,.68-29.22-.56-43.81-1.17-5.98-.25-11.97-.8-17.88-1.67-8.81-1.29-16.51-5.04-23.11-12.24Zm43.11-25.27c-13.57-7.02-22.27-5.36-24.42,4.15,8.05,.19,15.2-3.82,24.42-4.15Z" fill="#dac9b3"></path><path d="M413.17,609.98c.46,7.61-1.67,9.86-8.39,8.8-3.16-.5-5.83,.8-8.97,1.37-1.2,4.87-5.49,7.77-7.59,12.13-.93,1.92-2.89,2.82-4.98,2.85-3.45,.06-5.11,2.25-6.06,5.04-2.86,8.37-2.8,8.39-11.12,7.58-13.59,6.81-26.19,15.15-41.2,17.89-11.89,2.18-23.81,4.98-35.84,.76-2.96-1.04-5.86-2.27-8.56-3.33-3.06-6.64,5.09-10.68,2.43-17.7,.47,.54,.22-.04-.18-.16-6.04-1.96-11.92-3.83-13.37-11.43-.91-4.77-6.68-4.92-9.28-8.36-1-1.32-2.36-2.28-2.42-3.76,3.02-8.21,8.51-10.66,16.89-9.86,15.37,1.47,30.83,2.23,46.27,2.73,7.11,.23,14.07-2.3,21.28-2.33,14.83-.05,29.56-2.06,44.07-4.55,6.89-1.18,13.32-.95,20.01-.57,2.84,.16,4.98,1.56,6.99,2.89Z" fill="#dac9b3"></path><path d="M373.62,429.38c2.48,3.7,3.05,8.19,3.83,12.27,1.25,6.52,3.67,12.65,5.01,19.13,3.24,15.67,8.02,30.98,10.96,46.75,1.11,5.95,2.16,12.18,4.21,17.75,2.46,6.69-.44,11.24-3.47,15.86-2.86,4.37-6.24,8.51-10.38,11.91-2.46,2.02-4.69,2.09-7.17,.05-.46-3.05,.19-5.44,2.73-7.46,9.97-7.93,11.46-18.27,8.41-29.97-1.33-5.11-.53-10.49-1.61-15.72-1.55-7.54-2.41-15.23-3.65-22.84-1.7-10.42-5.14-20.51-5.89-31.13-.29-4.13-3.15-7.68-3.32-11.93-.06-1.62-.83-3.3,.43-4.79l-.1,.12Z" fill="#dac9b3"></path><path d="M361.94,438.23c3.36,16.63,10.78,32.29,11.32,51.04,3.2,9.09,7.17,19.37,6.02,30.87-.33,3.29-.02,6.8,1.17,10.21,1.23,3.52,.44,6.86-3.39,8.66-2.51-1.08-2.47-3.25-2.57-5.16-.26-4.81-.79-9.67-.34-14.42,.93-9.97-2.26-19.33-3.7-28.93-1.09-7.3-1.45-14.72-3.93-21.86-2-5.76-3.01-11.86-4.33-17.84-.89-4.03-1.56-8.11-2.33-12.17,.69-.13,1.39-.26,2.08-.39Z" fill="#dac9b3"></path><path d="M299.98,953.85c-2.49-2.39-4.51-3.95-4.06-6.83,6.97-5.2,18.21-2.49,22.16,5.87-6.03,4.45-12.46-2.56-18.1,.96Z" fill="#dac9b3"></path><path d="M373.72,429.26c-.82-1.36-1.65-2.72-2.47-4.09,1.88,.86,2.61,2.3,2.37,4.2l.1-.12Z" fill="#dac9b3"></path><path d="M361.39,435.42c-.92,.86-1.36,.55-1.89,.24,.51-1.06,1.03-.94,1.89-.24Z" fill="#dac9b3"></path><path d="M112.08,523.73c-2.95,3.19-4.47,7.18-9.54,6.03-1.88-1.08-3.64-2.87-4.19-5.7-3.74,2.19-.77,7.55-5.53,8.94-2.51-1.11-5.81-.85-8.46-2.77-1.21,1.55-2.32,2.97-3.48,4.46h-6.09c-5.11,5.51-6.54,5.81-13.72,2.67-1.82,2.73-1.12,7.07-4.74,8.65-3.96,1.72-6.47-1.3-8.9-3.47-2.33,.84-1.5,3.12-2.72,4.29-4.07,1.66-5.98,1.09-11.58-3.72,2.48-7.17,2.56-15.03,4.52-22.54,.94-3.62,7.47-9.81,10.83-9.16,6.92,1.33,12.91-1.65,18.75-3.84,10.24-3.84,21.08-4.76,31.37-7.84,8.35-2.5,17.78-2.82,24.42-9.95,1.16-1.24,3.64-1.24,5.45-1.79,4.61,3.31,9.01,6.48,13.66,9.81-2.21,3.47-2.03,7.1-2.12,10.73-.21,8.87-1.85,10.43-10.44,10.18-2.49,3.68-1.75,9.59-6.49,11.77-5.76,2.65-8.35-1.89-11-6.74Zm-51.24,5.14c-.6,2.25-1.05,3.34,.69,4.34,.41-1.11,.35-2.17-.69-4.34Zm37.68-8.68c.1-.19,.19-.37,.28-.56-.1,.19-.19,.37-.28,.56Z" fill="#dac9b3"></path><path d="M88.92,494.33c-7.26,3.49-13.86,.93-20.41,.66-4.74-.19-7.59-3.87-7.66-8.81-.08-5.31-.04-10.64,2.1-15.71,1.24-2.94,1.09-6.17,1.48-9.33,5.95-2.39,11.6-5.71,17.6-7.63,5.98-1.91,12.67-3.26,19.09-.06,1.38-.46,2.79-.94,4.08-1.37,8.49,1.35,15.77,22.48,11.14,33.24-9.27,2.21-20.57-.02-27.41,9.01Zm1.13-17.03c5.52,2.27,10.33-1.73,15.33-1.26,1.71-2.63,1.89-4.96,.9-8.12-5.31,3.55-10.63,6.56-16.23,9.38Z" fill="#dac9b3"></path><path d="M79.51,705.35c4.81-2.38,9.02-.11,13.27-.13,7.65-.04,15.19-.74,22.77-1.59,6.21-.7,12.27,6.9,9.93,12.02-1.02,2.23-2.72,3-4.93,3.65-11.24,3.27-22.23,1.7-33.22-1.3-4.15-1.14-9.19-.33-11.2-5.86,.22-2.87,3.44-4.29,3.38-6.77Z" fill="#dac9b3"></path><path d="M112.84,559.49c-5.03,5.68-11.36,7.6-18.4,6.69-4.39-.56-8.55-1.1-12.61,1.08-2.56,1.38-5.23-.79-8.11,.34-.63,1.21-1.25,2.78-2.19,4.11-1.37,1.92-2.98,3.69-5.76,2.96-2.86-.75-4.05-2.74-3.94-5.58,.14-3.63-.39-7-3.51-9-.02-2.63,.07-4.75,1.21-6.66,3.07-.8,4.9,1.94,7.82,2.43,2.14-1.31,4.56-2.72,7.13-2.94,2.92,.18,3.64,3.14,6.2,4,2.56-3.77,6.17-3.17,10.11-2.48,4.2,.74,8.39,1.12,12.63-1.09,4.88-2.54,7.86-.45,9.43,6.12Z" fill="#dac9b3"></path><path d="M134.05,547.23c1.32,7.18-4.07,12.25-10.84,10.65-1.75-.41-3.39-1.27-5.06-2-1.64-.71-2.69-1.88-2.61-3.81,.1-2.16,.98-4.27,2.98-4.73,5.17-1.19,10.46-1.99,15.52-.11Z" fill="#dac9b3"></path><path d="M47.97,465.87c.51,1.53,1.08,3.24,1.61,4.84-4.06,6.75-10.89,6.69-15.67,.01,2.78-6.93,7.39-8.58,14.06-4.85Z" fill="#dac9b3"></path><path d="M48.48,565.35c-.98,5.18-5.44,6.06-8.84,8.35-2.81-2.18-5.02-4.49-5.81-7.79,4.1-6.79,8.5-6.96,14.65-.55Z" fill="#dac9b3"></path><path d="M123.81,459.56c3.27,.17,6.5-.98,9.31,1.51,1.02,3.3-.71,5.63-2.65,7.84-7.46,.32-9.91-2.96-6.66-9.35Z" fill="#dac9b3"></path><path d="M328.93,989.49c7.76-5.56,16.16-8.28,24.94-9.77,3.99-.67,8.18-1.56,12.1,.93,2.41,1.54,5.37,2.8,4.55,6.25-.8,3.39-3.8,4.39-6.97,4.52-3.77,.16-7.45-.7-11.33-.42-5.4,.39-10.01,3.07-15.29,3.78-4.71,.64-6.3-1.19-7.99-5.3Z" fill="#dac9b3"></path><path d="M292.56,992.98c.89-1.11,1.55-1.06,2.28-.25-.36,1.46-1.1,1.3-2.28,.25Z" fill="#dac9b3"></path></g></svg>